<?xml version="1.0" encoding="utf-8"?>
<!-- Generator: Adobe Illustrator 22.1.0, SVG Export Plug-In . SVG Version: 6.00 Build 0)  -->
<svg version="1.1" xmlns="http://www.w3.org/2000/svg" xmlns:xlink="http://www.w3.org/1999/xlink" x="0px" y="0px"
	 viewBox="0 0 2000 1500" style="enable-background:new 0 0 2000 1500;" xml:space="preserve">
<style type="text/css">
	.st0{fill:#FFFFFF;}
	.st1{clip-path:url(#SVGID_2_);fill:url(#SVGID_3_);}
	.st2{clip-path:url(#SVGID_2_);}
	.st3{fill:url(#SVGID_4_);}
	.st4{fill:url(#SVGID_5_);}
	.st5{clip-path:url(#SVGID_2_);fill:#004963;}
	.st6{clip-path:url(#SVGID_2_);fill:#004051;}
	.st7{clip-path:url(#SVGID_2_);fill:#006082;}
	.st8{fill:#F99170;}
	.st9{fill:#FFA785;}
	.st10{fill:#FFB03E;}
	.st11{fill:#E26042;}
	.st12{fill:#EF7D5E;}
	.st13{fill:#F9EBD9;}
	.st14{fill:#EFD6BB;}
	.st15{clip-path:url(#SVGID_2_);fill:url(#SVGID_6_);}
	.st16{clip-path:url(#SVGID_2_);fill:url(#SVGID_7_);}
	.st17{clip-path:url(#SVGID_2_);fill:url(#SVGID_8_);}
	.st18{clip-path:url(#SVGID_2_);fill:url(#SVGID_9_);}
	.st19{clip-path:url(#SVGID_2_);fill:url(#SVGID_10_);}
	.st20{clip-path:url(#SVGID_2_);fill:url(#SVGID_11_);}
	.st21{clip-path:url(#SVGID_2_);fill:url(#SVGID_12_);}
	.st22{clip-path:url(#SVGID_2_);fill:url(#SVGID_13_);}
	.st23{clip-path:url(#SVGID_2_);fill:url(#SVGID_14_);}
	.st24{clip-path:url(#SVGID_2_);fill:url(#SVGID_15_);}
</style>
<g id="Background">
	<rect class="st0" width="2000" height="1500"/>
</g>
<g id="Object">
	<g>
		<defs>
			<circle id="SVGID_1_" cx="1000" cy="750" r="584.7"/>
		</defs>
		<clipPath id="SVGID_2_">
			<use xlink:href="#SVGID_1_"  style="overflow:visible;"/>
		</clipPath>
		<linearGradient id="SVGID_3_" gradientUnits="userSpaceOnUse" x1="1005.9097" y1="91.1221" x2="1005.9097" y2="768.2118">
			<stop  offset="0" style="stop-color:#92D4C6"/>
			<stop  offset="1" style="stop-color:#008CB3"/>
		</linearGradient>
		<rect x="184.1" y="125.1" class="st1" width="1643.5" height="1249.7"/>
		<g class="st2">
			<linearGradient id="SVGID_4_" gradientUnits="userSpaceOnUse" x1="1005.9097" y1="91.1221" x2="1005.9097" y2="768.2118">
				<stop  offset="0" style="stop-color:#A6E6D7"/>
				<stop  offset="1" style="stop-color:#008CB3"/>
			</linearGradient>
			<path class="st3" d="M1827.7,456.1v-115c-368.5,22.6-1276-88.2-1643.5-31.1v97.9C568.5,302,1513.9,414.3,1827.7,456.1z"/>
			<linearGradient id="SVGID_5_" gradientUnits="userSpaceOnUse" x1="1005.9097" y1="91.0442" x2="1005.9097" y2="768.1339">
				<stop  offset="0" style="stop-color:#A6E6D7"/>
				<stop  offset="1" style="stop-color:#008CB3"/>
			</linearGradient>
			<path class="st4" d="M1034.3,538.3c-289.9-73.3-534.5,7.5-850.1-36.2v161.1c239.9-47.8,746.7-67.8,905.7-28.1
				c154.6,38.6,517.5,121.1,737.8,34.1V616C1628.6,644.6,1284.1,601.5,1034.3,538.3z"/>
		</g>
		<rect x="178.2" y="768.5" class="st5" width="1643.5" height="606.4"/>
		<path class="st6" d="M1271.8,1097.6c-73.2,9.7-120-6.7-120.5-6.9c0.5,1.3,30.3,81.7,30.3,127.9c0,46.5-9.9,84-91.6,84
			s-72.9-31-19.2-31c53.8,0,57.7-57.7,36-86.4c-21.7-28.7-106.7-88.1-106.7-122.1c0,34-85,93.4-106.7,122.1
			c-21.6,28.7-17.8,86.4,36,86.4c53.8,0,62.6,31-19.1,31s-91.6-37.5-91.6-84c0-46.1,29.8-126.6,30.3-127.9
			c-0.6,0.2-47.3,16.6-120.5,6.9c-96.8-12.8-85.5-17.5,7.3-28.2c57.5-6.6,203.3-141.9,264.4-153.2
			c61.1,11.3,206.9,146.6,264.4,153.2C1357.3,1080,1368.6,1084.8,1271.8,1097.6z"/>
		<path class="st7" d="M1529.2,733c7.6-28.4,13.4-38.7,12.2-57.3s20-39.4,11.5-63.1s-29.5-10.9-35.3,3
			c-5.7,13.9-12.3,35.1-20.5,54.7s-11.5,55.4-11.5,59.5c-9.3-7.6-18.7-14.8-17.3-20.6c1.4-5.8,14.8-62,18.7-83.7s-3.5-38.5,1.2-53.8
			s-24.4-41.3-49.4-14.3c-25.1,27-21.5,65.8-21.5,92.2c0,26.4-9.6,47.8-19.8,53.6c-5.9,3.4,0-1.6,0-24.7s-5.3,0.5,0.5-40.9
			c5.8-41.4,20.4-50.8-0.5-54s-37.6-1.4-42.4,51.1c-4.8,52.5-5.3,69.5-25.1,80.9s-67.9,18.8-93.5-14.5c-25.5-33.2-12-53.3-46.2-40.4
			c-34.2,12.9-71.3,7.1-133.9-14.5c-62.6-21.7-79.5,44.3-141.6,36.6c-39.6-4.9-140-12.6-215.4-22c-6.9-10.7-11.2-22-13.5-33.7
			c48.9-67.7,93.8-184.9,76.3-275.2c-0.5,55.6-28.6,163.9-78,236.4c1.5-17.1,5.4-34.8,10.1-52.7c14.4-57.9,36.9-118.3-6.1-170.9
			c41.1,72.9,0.5,135.8-20.9,189.9c-11.9,26.8-19.2,51.5-17.2,74.1c-8.4,7.7-17.1,14.2-26.3,19.4c-4.2-1.2-7.7-2.3-10.4-3.5
			c0-4.4,0.3-9.1,1-13.9c3-25.2,15.9-56,28.9-88.3c12.9-32.3,25.9-66,27.1-96.8c1.6-30.8-8.7-58.8-32.7-79.6
			c43,65.7,3.9,124.1-26.7,175.3c-16.3,25.6-30.5,49.4-37.1,71.3c-0.7-0.9-1.5-1.7-2.2-2.6c-4.4-27.4,1.3-56.9,9.2-87.1
			c1.7-7,3.6-13.9,5.4-20.9c10.7-7.9,20.9-15.8,29.6-23.8c31.1-27.7,45.3-55.5,23.2-80.6c9.1,15.5,6.8,36.5-15.9,59.5
			c-8.2,8.9-19.5,18-32.5,27.3c11.2-45.6,17.5-91.4-16-132.3c30,53.3,16.5,101.2-1.4,144.2c-16.7,11-35,22-52.9,32.7
			c-0.7,0.4-1.5,0.9-2.2,1.3c-16.2-32.5-27.7-68.9-27.7-106c-6.9,35.7-0.9,77,11.8,115.6c-33,19.8-63,38.4-80.8,53.7
			c-4.6,3.7-15.7,16.7-19.2,19.9v176h1195.6v-13.6C1589.9,767.9,1533.7,735.7,1529.2,733z M564,517.6c-3.6,8.2-7.1,16.3-10.2,24.1
			c-4.6,10.2-8.4,20.1-11.3,29.7c-5.7-8.5-11.3-17.5-16.6-26.9C537.7,535.9,550.9,526.8,564,517.6z M464.4,606.1
			c7.6-14,21.3-30.2,44.1-47.8c0.1-0.1,0.3-0.2,0.4-0.3c7.4,18.9,16.2,36.7,25.5,52.4c-28.3-0.5-41.4-4.3-68.6-4.3
			C465.3,606.1,464.8,606.1,464.4,606.1z"/>
		<g id="Layer_3_1_" class="st2">
			<g>
				<g>
					<path class="st8" d="M1115.7,750.2c18.2,7.3,16.3,35,9.5,48.7c-10.9,21.8-37.5,15.6-48.7,19.3L1115.7,750.2z"/>
				</g>
				<g>
					<path class="st9" d="M1122.4,754.6c10.8,10.7,8.6,32.6,2.8,44.4c-3.1,6.2-7.5,10.2-12.4,12.7
						C1100.9,803.8,1110.6,790.5,1122.4,754.6z"/>
				</g>
				<g>
					<path class="st8" d="M884.3,750.2c-18.2,7.3-16.3,35-9.5,48.7c10.9,21.8,37.5,15.6,48.7,19.3L884.3,750.2z"/>
				</g>
				<g>
					<path class="st9" d="M877.6,754.6c-10.8,10.7-8.6,32.6-2.8,44.4c3.1,6.2,7.5,10.2,12.4,12.7
						C899.1,803.8,889.4,790.5,877.6,754.6z"/>
				</g>
			</g>
			<g>
				<g>
					<g>
						<path class="st10" d="M1353.4,1141.3c44.3-6.6,60.2-57.7,11.4-76.7c-60.7-23.6-137.1,42.2-216.4-0.9
							c62.3,62.3,61.6,226.5-43.6,226.5c-100.8,0-81.9-101.5-23-101.5c-51,39.8-16.3,70.6,16.8,70.6c49.3,0,48.8-86.4-5.1-150.4
							c-39.4-46.8-80.6-47.9-93.4-91.5c-12.8,43.6-53.9,44.7-93.4,91.5c-53.9,64-54.4,150.4-5.1,150.4c33,0,67.7-30.7,16.8-70.6
							c58.9,0,77.8,101.5-23,101.5c-105.2,0-106-164.2-43.6-226.5c-79.3,43.1-155.6-22.7-216.4,0.9c-48.9,19-32.9,70,11.4,76.7
							c-74.7,4.4-82.9-71.7-42.3-105.4c60-49.8,117.5-12,185.1-23.8c-84.9-10.7-85.8-136.6-135.9-136.6c-31.1,0-46.9,37.5-9.4,71.2
							c-58.1-18.2-46.3-98.1,18.1-98.1c70.7,0,71.9,119.8,171.4,119.8c-83.1-71.2,1.8-165.8-20.6-192.3c-17.8-21-62.3-8.2-51.6,35.3
							c-26.8-38.3,24.9-92.4,67.4-57.9c47.4,38.5-37.5,170.8,54.1,170.8c54.7,0,47.3-59.5,22.3-112.9
							C845,683.4,871.2,601.3,1000,601.3s155,82,94.9,210.1c-25.1,53.4-32.4,112.9,22.3,112.9c91.5,0,6.7-132.3,54.1-170.8
							c42.5-34.5,94.2,19.6,67.4,57.9c10.7-43.5-33.8-56.3-51.6-35.3c-22.4,26.4,62.5,121.1-20.6,192.3
							c99.5,0,100.7-119.8,171.4-119.8c64.4,0,76.2,79.9,18.1,98.1c37.6-33.7,21.8-71.2-9.4-71.2c-50.2,0-51,126-135.9,136.6
							c67.6,11.8,125.1-26.1,185.1,23.8C1436.3,1069.6,1428.1,1145.7,1353.4,1141.3z"/>
					</g>
					<g>
						<path class="st11" d="M1353.4,1141.3c74.7-6.4,61.8-74.6,15-92.8c-58.2-22.6-152,49.8-227.9,8.6c4.3,2.9,5.7,3.9,8,6.7
							c62.3,62.3,61.6,226.5-43.6,226.5c-100.8,0-81.9-101.5-23-101.5c-62.5,34.2-31.7,79.2,24.3,79.2c65.7,0,47.7-112.1-3.9-173.4
							c-37.8-44.8-89.9-48-102.1-89.8c-12.2,41.8-64.4,45-102.1,89.8c-51.6,61.3-69.6,173.4-3.9,173.4c56.1,0,86.8-44.9,24.3-79.2
							c58.9,0,77.8,101.5-23,101.5c-105.2,0-106-164.2-43.6-226.5c2.2-2.7,3.7-3.8,8-6.7c-75.9,41.2-169.8-31.2-227.9-8.6
							c-46.8,18.2-59.7,86.4,15,92.8c-74.7,4.4-82.9-71.7-42.3-105.4c60-49.8,117.5-12,185.1-23.8c3.9-0.4,8.8-0.9,12.8-1.6
							c-81.3-10.2-88.3-135.8-142.5-144.8c-31.1-5.1-69.6,40.7-15.6,80.9c-0.9-0.3-1.8-0.6-2.7-0.9c-55-19.8-42.5-97.2,20.9-97.2
							c70.7,0,71.9,119.8,171.4,119.8c1.9-0.3,3.7-0.5,7.1-1c-79.6-68.2,1.6-162.9-18.8-196.4c-20.7-34.1-75.5-4-60.6,40.3
							c-26.8-38.3,24.9-92.4,67.4-57.9c47.4,38.5-37.5,170.8,54.1,170.8c54.7,0,47.3-59.5,22.3-112.9
							C845,683.4,871.2,601.3,1000,601.3s155,82,94.9,210.1c-25.1,53.4-32.4,112.9,22.3,112.9c91.5,0,6.7-132.3,54.1-170.8
							c42.5-34.5,94.2,19.6,67.4,57.9c14.9-44.3-39.9-74.4-60.6-40.3c-20.3,33.5,60.8,128.2-18.8,196.4c3.4,0.5,5.2,0.6,7.1,1
							c99.5,0,100.7-119.8,171.4-119.8c63.4,0,75.8,77.4,20.9,97.2c-0.9,0.3-1.8,0.6-2.7,0.9c54-40.2,15.5-86.1-15.6-80.9
							c-54.2,9-61.2,134.6-142.5,144.8c4,0.7,8.9,1.2,12.8,1.6c67.6,11.8,125.1-26.1,185.1,23.8
							C1436.3,1069.6,1428.1,1145.7,1353.4,1141.3z"/>
					</g>
					<g>
						<path class="st12" d="M1261,1044.6c-41.7,16.1-93,16.5-136.4,2.9c11.9,6.9,43,42.1,45.6,85.6c2.6,43.6-24.2,32.7-32.8,10.8
							c-38.4-98-137.4-104.7-137.4-167.6c0,62.9-99,69.6-137.4,167.6c-8.6,21.9-35.4,32.8-32.8-10.8c2.6-43.6,33.7-78.8,45.6-85.6
							c-43.5,13.7-94.7,13.2-136.4-2.9c-24.3-9.4-21.5-19.5,41.7-21.8c63.1-2.2,57.4-27.6,57.4-27.6c-61.9,12.4-85.3-32.7-91-47.9
							c-5.7-15.2,75.1,64.1,136.7,1.3c-28.5,5.1-77.5-33.7-65-75.2c14.7-48.6-7.9,35.6,44.7,52.3c40.6,12.9,72.3-11.7,72.3-47.9
							c0-28.4-21.1-53.7-36.9-80.2c-51.9-120.2-23-196.4,101.1-196.4s153,76.2,101.1,196.4c-15.7,26.5-36.9,51.7-36.9,80.2
							c0,36.2,31.8,60.8,72.3,47.9c52.7-16.8,30-101,44.7-52.3c12.5,41.5-36.5,80.3-65,75.2c61.6,62.8,142.4-16.5,136.7-1.3
							c-5.7,15.2-29.2,60.3-91,47.9c0,0-5.7,25.4,57.4,27.6C1282.5,1025,1285.3,1035.2,1261,1044.6z"/>
					</g>
					<g>
						<path class="st8" d="M1000,944.4c-44,148.7-203.9,67.6-133.6,29.7c68.6-36.9,110.4-95.9,64.9-158.7
							c-39.6-54.6-76.9-126.5-33-180.3c19.4-23.7,63.6-33.7,101.7-33.7c38.1,0,82.3,10,101.7,33.7c43.9,53.8,6.6,125.7-33,180.3
							c-45.5,62.8-3.7,121.8,64.9,158.7C1203.9,1011.9,1044,1093.1,1000,944.4z"/>
					</g>
					<g>
						<path class="st9" d="M1000,762.9c-70.8,0-112.1-42.6-105.3-83.1c6.8-40.5,45-73.4,105.3-73.4c60.2,0,98.5,32.9,105.3,73.4
							C1112.1,720.3,1070.8,762.9,1000,762.9z"/>
					</g>
					<g>
						<path class="st9" d="M1018,948.9c3.2,17.8,11.1,35,23.4,47.9c20.5,21.4,49.8,28,81.4,11.7c0.6-0.3,0.8-1,0.5-1.5
							c-0.5-0.9-1.5-0.5-1.5-0.5c-30.6,13.2-57.1,5.7-74.4-15c-10.2-12.3-16.3-28.1-18-44.2c-0.3-3.1-3.2-5.4-6.3-5.1
							s-5.4,3.2-5.1,6.3C1018,948.6,1018,948.8,1018,948.9L1018,948.9z"/>
					</g>
					<g>
						<path class="st9" d="M982,948.9c-3.2,17.8-11.1,35-23.4,47.9c-20.5,21.4-49.8,28-81.4,11.7c-0.6-0.3-0.8-1-0.5-1.5
							c0.5-0.9,1.5-0.5,1.5-0.5c30.6,13.2,57.1,5.7,74.4-15c10.2-12.3,16.3-28.1,18-44.2c0.3-3.1,3.2-5.4,6.3-5.1s5.4,3.2,5.1,6.3
							C982,948.6,982,948.8,982,948.9L982,948.9z"/>
					</g>
				</g>
				<g>
					<path class="st12" d="M1385.8,911.1c4.9-29.7-27.8-71.8-68.3-37.5c-11,9.3-30,0.6-7.9-15.4
						C1342.7,834.2,1408.7,860.4,1385.8,911.1z"/>
				</g>
				<g>
					<path class="st12" d="M1389.6,1052.5c-25.4-16.3-5.3-29.1,10.8-12.2c17.9,18.7,26.3,50.2,10.2,73.8
						C1415.8,1096.7,1410.1,1065.7,1389.6,1052.5z"/>
				</g>
				<g>
					<path class="st12" d="M614.2,911.1c-4.9-29.7,27.8-71.8,68.3-37.5c11,9.3,30,0.6,7.9-15.4C657.3,834.2,591.3,860.4,614.2,911.1
						z"/>
				</g>
				<g>
					<path class="st12" d="M610.4,1052.5c25.4-16.3,5.3-29.1-10.8-12.2c-17.9,18.7-26.3,50.2-10.2,73.8
						C584.2,1096.7,589.9,1065.7,610.4,1052.5z"/>
				</g>
			</g>
			<g>
				<g>
					
						<ellipse transform="matrix(0.6137 -0.7896 0.7896 0.6137 -135.0409 1267.6127)" class="st13" cx="1227.8" cy="771.8" rx="2.5" ry="4.7"/>
				</g>
				<g>
					
						<ellipse transform="matrix(0.6137 -0.7896 0.7896 0.6137 -135.0409 1267.6127)" class="st14" cx="1227.8" cy="771.8" rx="1.3" ry="2.4"/>
				</g>
			</g>
			<g>
				<g>
					
						<ellipse transform="matrix(0.1914 -0.9815 0.9815 0.1914 228.941 1803.6779)" class="st13" cx="1209.1" cy="762.9" rx="4.2" ry="7.6"/>
				</g>
				<g>
					
						<ellipse transform="matrix(0.1914 -0.9815 0.9815 0.1914 228.941 1803.6779)" class="st14" cx="1209.1" cy="762.9" rx="2.2" ry="3.9"/>
				</g>
			</g>
			<g>
				<g>
					
						<ellipse transform="matrix(0.6931 -0.7209 0.7209 0.6931 -190.4639 1091.1085)" class="st13" cx="1186.1" cy="769.2" rx="7.2" ry="5.2"/>
				</g>
				<g>
					
						<ellipse transform="matrix(0.6931 -0.7209 0.7209 0.6931 -190.4639 1091.1085)" class="st14" cx="1186.1" cy="769.2" rx="3.7" ry="2.7"/>
				</g>
			</g>
			<g>
				<g>
					
						<ellipse transform="matrix(0.994 -0.109 0.109 0.994 -78.9897 133.2714)" class="st13" cx="1179.9" cy="789.4" rx="4.9" ry="7.2"/>
				</g>
				<g>
					
						<ellipse transform="matrix(0.994 -0.109 0.109 0.994 -78.9897 133.2714)" class="st14" cx="1179.9" cy="789.4" rx="2.5" ry="3.7"/>
				</g>
			</g>
			<g>
				<g>
					
						<ellipse transform="matrix(0.9538 -0.3004 0.3004 0.9538 -189.4882 393.1585)" class="st13" cx="1183.8" cy="812.8" rx="4.2" ry="7.2"/>
				</g>
				<g>
					
						<ellipse transform="matrix(0.9538 -0.3004 0.3004 0.9538 -189.4882 393.1585)" class="st14" cx="1183.8" cy="812.8" rx="2.2" ry="3.7"/>
				</g>
			</g>
			<g>
				<g>
					
						<ellipse transform="matrix(0.9538 -0.3004 0.3004 0.9538 -197.1433 396.9293)" class="st13" cx="1192.3" cy="839.6" rx="5" ry="7.2"/>
				</g>
				<g>
					
						<ellipse transform="matrix(0.9538 -0.3004 0.3004 0.9538 -197.1433 396.9293)" class="st14" cx="1192.3" cy="839.6" rx="2.6" ry="3.7"/>
				</g>
			</g>
			<g>
				<g>
					
						<ellipse transform="matrix(0.9921 -0.1255 0.1255 0.9921 -100.0949 157.3957)" class="st13" cx="1199" cy="873" rx="6.1" ry="7.2"/>
				</g>
				<g>
					
						<ellipse transform="matrix(0.9921 -0.1255 0.1255 0.9921 -100.0949 157.3957)" class="st14" cx="1199" cy="873" rx="3.2" ry="3.7"/>
				</g>
			</g>
			<g>
				<g>
					
						<ellipse transform="matrix(0.435 -0.9004 0.9004 0.435 -146.4699 1596.6425)" class="st13" cx="1199" cy="915" rx="7.2" ry="6.1"/>
				</g>
				<g>
					
						<ellipse transform="matrix(0.435 -0.9004 0.9004 0.435 -146.4699 1596.6425)" class="st14" cx="1199" cy="915" rx="3.7" ry="3.2"/>
				</g>
			</g>
			<g>
				<g>
					
						<ellipse transform="matrix(0.7898 -0.6133 0.6133 0.7898 -345.2593 974.7428)" class="st13" cx="1249.7" cy="991.2" rx="11.1" ry="6.3"/>
				</g>
				<g>
					
						<ellipse transform="matrix(0.7898 -0.6133 0.6133 0.7898 -345.2593 974.7428)" class="st14" cx="1249.7" cy="991.2" rx="5.8" ry="3.3"/>
				</g>
			</g>
			<g>
				<g>
					
						<ellipse transform="matrix(0.9989 -4.719091e-02 4.719091e-02 0.9989 -49.3745 58.0679)" class="st13" cx="1205.1" cy="1074.7" rx="9.5" ry="5.4"/>
				</g>
				<g>
					
						<ellipse transform="matrix(0.9989 -4.719091e-02 4.719091e-02 0.9989 -49.3745 58.0679)" class="st14" cx="1205.1" cy="1074.7" rx="5" ry="2.8"/>
				</g>
			</g>
			<g>
				<g>
					
						<ellipse transform="matrix(0.9826 -0.1858 0.1858 0.9826 -177.2821 249.7972)" class="st13" cx="1243.8" cy="1070.5" rx="11.6" ry="6.6"/>
				</g>
				<g>
					
						<ellipse transform="matrix(0.9826 -0.1858 0.1858 0.9826 -177.2821 249.7972)" class="st14" cx="1243.8" cy="1070.5" rx="6.1" ry="3.4"/>
				</g>
			</g>
			<g>
				<g>
					
						<ellipse transform="matrix(0.9982 -6.028803e-02 6.028803e-02 0.9982 -61.4404 79.8703)" class="st13" cx="1292.9" cy="1058.1" rx="11.6" ry="6.6"/>
				</g>
				<g>
					
						<ellipse transform="matrix(0.9982 -6.028803e-02 6.028803e-02 0.9982 -61.4404 79.8703)" class="st14" cx="1292.9" cy="1058.1" rx="6.1" ry="3.4"/>
				</g>
			</g>
			<g>
				<g>
					
						<ellipse transform="matrix(9.844723e-02 -0.9951 0.9951 9.844723e-02 165.172 2286.9255)" class="st13" cx="1344.8" cy="1052.3" rx="7.8" ry="13.8"/>
				</g>
				<g>
					
						<ellipse transform="matrix(9.844723e-02 -0.9951 0.9951 9.844723e-02 165.172 2286.9255)" class="st14" cx="1344.8" cy="1052.3" rx="4" ry="7.2"/>
				</g>
			</g>
			<g>
				<g>
					
						<ellipse transform="matrix(0.5809 -0.814 0.814 0.5809 -423.4887 1278.1392)" class="st13" cx="1029.4" cy="1050.3" rx="7.8" ry="13.8"/>
				</g>
				<g>
					
						<ellipse transform="matrix(0.5809 -0.814 0.814 0.5809 -423.4887 1278.1392)" class="st14" cx="1029.4" cy="1050.3" rx="4" ry="7.2"/>
				</g>
			</g>
			<g>
				<g>
					
						<ellipse transform="matrix(0.5809 -0.814 0.814 0.5809 -428.8935 1328.246)" class="st13" cx="1075.4" cy="1080.6" rx="8.5" ry="12.5"/>
				</g>
				<g>
					
						<ellipse transform="matrix(0.5809 -0.814 0.814 0.5809 -428.8935 1328.246)" class="st14" cx="1075.4" cy="1080.6" rx="4.4" ry="6.5"/>
				</g>
			</g>
			<g>
				<g>
					
						<ellipse transform="matrix(0.8155 -0.5787 0.5787 0.8155 -446.1444 852.4673)" class="st13" cx="1114.2" cy="1126.1" rx="8.8" ry="13"/>
				</g>
				<g>
					
						<ellipse transform="matrix(0.8155 -0.5787 0.5787 0.8155 -446.1444 852.4673)" class="st14" cx="1114.2" cy="1126.1" rx="4.6" ry="6.8"/>
				</g>
			</g>
			<g>
				<g>
					
						<ellipse transform="matrix(0.9979 -6.541245e-02 6.541245e-02 0.9979 -75.2928 76.9577)" class="st13" cx="1137.6" cy="1188.3" rx="8.9" ry="10.7"/>
				</g>
				<g>
					
						<ellipse transform="matrix(0.9979 -6.541245e-02 6.541245e-02 0.9979 -75.2928 76.9577)" class="st14" cx="1137.6" cy="1188.3" rx="4.6" ry="5.6"/>
				</g>
			</g>
			<g>
				<g>
					
						<ellipse transform="matrix(0.4271 -0.9042 0.9042 0.4271 -473.7004 1737.171)" class="st13" cx="1134" cy="1242.4" rx="12.7" ry="9"/>
				</g>
				<g>
					
						<ellipse transform="matrix(0.4271 -0.9042 0.9042 0.4271 -473.7004 1737.171)" class="st14" cx="1134" cy="1242.4" rx="6.6" ry="4.7"/>
				</g>
			</g>
			<g>
				<g>
					
						<ellipse transform="matrix(0.2292 -0.9734 0.9734 0.2292 -391.6659 2029.3358)" class="st13" cx="1085.5" cy="1262" rx="5.3" ry="8.4"/>
				</g>
				<g>
					
						<ellipse transform="matrix(0.2292 -0.9734 0.9734 0.2292 -391.6659 2029.3358)" class="st14" cx="1085.5" cy="1262" rx="2.8" ry="4.4"/>
				</g>
			</g>
			<g>
				<g>
					
						<ellipse transform="matrix(0.406 -0.9139 0.9139 0.406 -495.4427 1690.8162)" class="st13" cx="1052.9" cy="1226.5" rx="8.4" ry="5.3"/>
				</g>
				<g>
					
						<ellipse transform="matrix(0.406 -0.9139 0.9139 0.406 -495.4427 1690.8162)" class="st14" cx="1052.9" cy="1226.5" rx="4.4" ry="2.8"/>
				</g>
			</g>
			<g>
				<g>
					
						<ellipse transform="matrix(0.8612 -0.5082 0.5082 0.8612 -351.578 853.5398)" class="st13" cx="1387.1" cy="1070.5" rx="5.9" ry="8.1"/>
				</g>
				<g>
					
						<ellipse transform="matrix(0.8612 -0.5082 0.5082 0.8612 -351.578 853.5398)" class="st14" cx="1387.1" cy="1070.5" rx="3.1" ry="4.2"/>
				</g>
			</g>
			<g>
				<g>
					
						<ellipse transform="matrix(0.2873 -0.9578 0.9578 0.2873 -65.3556 2129.9402)" class="st13" cx="1398.7" cy="1108.9" rx="8.1" ry="5.9"/>
				</g>
				<g>
					
						<ellipse transform="matrix(0.2873 -0.9578 0.9578 0.2873 -65.3556 2129.9402)" class="st14" cx="1398.7" cy="1108.9" rx="4.2" ry="3.1"/>
				</g>
			</g>
			<g>
				<g>
					
						<ellipse transform="matrix(0.4124 -0.911 0.911 0.4124 -130.9141 1725.1143)" class="st13" cx="1271.8" cy="964" rx="9.7" ry="6.8"/>
				</g>
				<g>
					
						<ellipse transform="matrix(0.4124 -0.911 0.911 0.4124 -130.9141 1725.1143)" class="st14" cx="1271.8" cy="964" rx="5" ry="3.5"/>
				</g>
			</g>
			<g>
				<g>
					
						<ellipse transform="matrix(0.4124 -0.911 0.911 0.4124 -99.6719 1723.8901)" class="st13" cx="1286.4" cy="939.2" rx="9.1" ry="6.4"/>
				</g>
				<g>
					
						<ellipse transform="matrix(0.4124 -0.911 0.911 0.4124 -99.6719 1723.8901)" class="st14" cx="1286.4" cy="939.2" rx="4.7" ry="3.3"/>
				</g>
			</g>
			<g>
				<g>
					
						<ellipse transform="matrix(0.5813 -0.8137 0.8137 0.5813 -192.9988 1440.6042)" class="st13" cx="1303.4" cy="907.8" rx="9.1" ry="6.4"/>
				</g>
				<g>
					
						<ellipse transform="matrix(0.5813 -0.8137 0.8137 0.5813 -192.9988 1440.6042)" class="st14" cx="1303.4" cy="907.8" rx="4.7" ry="3.3"/>
				</g>
			</g>
			<g>
				<g>
					
						<ellipse transform="matrix(0.7484 -0.6632 0.6632 0.7484 -251.7912 1098.9495)" class="st13" cx="1322.7" cy="881.4" rx="8.6" ry="6"/>
				</g>
				<g>
					
						<ellipse transform="matrix(0.7484 -0.6632 0.6632 0.7484 -251.7912 1098.9495)" class="st14" cx="1322.7" cy="881.4" rx="4.5" ry="3.1"/>
				</g>
			</g>
			<g>
				<g>
					
						<ellipse transform="matrix(0.1203 -0.9927 0.9927 0.1203 323.3318 2107.4077)" class="st13" cx="1350.8" cy="871.3" rx="5.1" ry="6.5"/>
				</g>
				<g>
					
						<ellipse transform="matrix(0.1203 -0.9927 0.9927 0.1203 323.3318 2107.4077)" class="st14" cx="1350.8" cy="871.3" rx="2.7" ry="3.4"/>
				</g>
			</g>
			<g>
				<g>
					
						<ellipse transform="matrix(0.8176 -0.5758 0.5758 0.8176 -261.514 954.674)" class="st13" cx="1375.9" cy="890.1" rx="3.9" ry="4.9"/>
				</g>
				<g>
					
						<ellipse transform="matrix(0.8176 -0.5758 0.5758 0.8176 -261.514 954.674)" class="st14" cx="1375.9" cy="890.1" rx="2" ry="2.6"/>
				</g>
			</g>
			<g>
				<g>
					
						<ellipse transform="matrix(0.4141 -0.9102 0.9102 0.4141 -33.4737 1791.6837)" class="st13" cx="1375.1" cy="921.8" rx="3.8" ry="3"/>
				</g>
				<g>
					
						<ellipse transform="matrix(0.4141 -0.9102 0.9102 0.4141 -33.4737 1791.6837)" class="st14" cx="1375.1" cy="921.8" rx="2" ry="1.5"/>
				</g>
			</g>
			<g>
				<g>
					
						<ellipse transform="matrix(0.435 -0.9004 0.9004 0.435 -195.7982 1600.3522)" class="st13" cx="1177.3" cy="956.2" rx="8.4" ry="5.4"/>
				</g>
				<g>
					
						<ellipse transform="matrix(0.435 -0.9004 0.9004 0.435 -195.7982 1600.3522)" class="st14" cx="1177.3" cy="956.2" rx="4.4" ry="2.8"/>
				</g>
			</g>
			<g>
				<g>
					
						<ellipse transform="matrix(0.7896 -0.6137 0.6137 0.7896 -311.1392 636.2786)" class="st13" cx="772.2" cy="771.8" rx="4.7" ry="2.5"/>
				</g>
				<g>
					
						<ellipse transform="matrix(0.7896 -0.6137 0.6137 0.7896 -311.1392 636.2786)" class="st14" cx="772.2" cy="771.8" rx="2.4" ry="1.3"/>
				</g>
			</g>
			<g>
				<g>
					
						<ellipse transform="matrix(0.9815 -0.1914 0.1914 0.9815 -131.3899 165.4635)" class="st13" cx="790.9" cy="762.9" rx="7.6" ry="4.2"/>
				</g>
				<g>
					
						<ellipse transform="matrix(0.9815 -0.1914 0.1914 0.9815 -131.3899 165.4635)" class="st14" cx="790.9" cy="762.9" rx="3.9" ry="2.2"/>
				</g>
			</g>
			<g>
				<g>
					
						<ellipse transform="matrix(0.7209 -0.6931 0.6931 0.7209 -305.9366 778.814)" class="st13" cx="813.9" cy="769.2" rx="5.2" ry="7.2"/>
				</g>
				<g>
					
						<ellipse transform="matrix(0.7209 -0.6931 0.6931 0.7209 -305.9366 778.814)" class="st14" cx="813.9" cy="769.2" rx="2.7" ry="3.7"/>
				</g>
			</g>
			<g>
				<g>
					
						<ellipse transform="matrix(0.109 -0.994 0.994 0.109 -53.9836 1518.5549)" class="st13" cx="820.1" cy="789.4" rx="7.2" ry="4.9"/>
				</g>
				<g>
					
						<ellipse transform="matrix(0.109 -0.994 0.994 0.109 -53.9836 1518.5549)" class="st14" cx="820.1" cy="789.4" rx="3.7" ry="2.5"/>
				</g>
			</g>
			<g>
				<g>
					
						<ellipse transform="matrix(0.3004 -0.9538 0.9538 0.3004 -204.2804 1347.1125)" class="st13" cx="816.2" cy="812.8" rx="7.2" ry="4.2"/>
				</g>
				<g>
					
						<ellipse transform="matrix(0.3004 -0.9538 0.9538 0.3004 -204.2804 1347.1125)" class="st14" cx="816.2" cy="812.8" rx="3.7" ry="2.2"/>
				</g>
			</g>
			<g>
				<g>
					
						<ellipse transform="matrix(0.3004 -0.9538 0.9538 0.3004 -235.7241 1357.803)" class="st13" cx="807.7" cy="839.6" rx="7.2" ry="5"/>
				</g>
				<g>
					
						<ellipse transform="matrix(0.3004 -0.9538 0.9538 0.3004 -235.7241 1357.803)" class="st14" cx="807.7" cy="839.6" rx="3.7" ry="2.6"/>
				</g>
			</g>
			<g>
				<g>
					
						<ellipse transform="matrix(0.1255 -0.9921 0.9921 0.1255 -165.6304 1558.1165)" class="st13" cx="801" cy="873" rx="7.2" ry="6.1"/>
				</g>
				<g>
					
						<ellipse transform="matrix(0.1255 -0.9921 0.9921 0.1255 -165.6304 1558.1165)" class="st14" cx="801" cy="873" rx="3.7" ry="3.2"/>
				</g>
			</g>
			<g>
				<g>
					
						<ellipse transform="matrix(0.9004 -0.435 0.435 0.9004 -318.2633 439.5099)" class="st13" cx="801" cy="915" rx="6.1" ry="7.2"/>
				</g>
				<g>
					
						<ellipse transform="matrix(0.9004 -0.435 0.435 0.9004 -318.2633 439.5099)" class="st14" cx="801" cy="915" rx="3.2" ry="3.7"/>
				</g>
			</g>
			<g>
				<g>
					
						<ellipse transform="matrix(0.6133 -0.7898 0.7898 0.6133 -492.6999 975.9091)" class="st13" cx="750.3" cy="991.2" rx="6.3" ry="11.1"/>
				</g>
				<g>
					
						<ellipse transform="matrix(0.6133 -0.7898 0.7898 0.6133 -492.6999 975.9091)" class="st14" cx="750.3" cy="991.2" rx="3.3" ry="5.8"/>
				</g>
			</g>
			<g>
				<g>
					
						<ellipse transform="matrix(4.719091e-02 -0.9989 0.9989 4.719091e-02 -316.153 1818.0022)" class="st13" cx="794.9" cy="1074.7" rx="5.4" ry="9.5"/>
				</g>
				<g>
					
						<ellipse transform="matrix(4.719091e-02 -0.9989 0.9989 4.719091e-02 -316.153 1818.0022)" class="st14" cx="794.9" cy="1074.7" rx="2.8" ry="5"/>
				</g>
			</g>
			<g>
				<g>
					
						<ellipse transform="matrix(0.1858 -0.9826 0.9826 0.1858 -436.193 1614.6199)" class="st13" cx="756.2" cy="1070.5" rx="6.6" ry="11.6"/>
				</g>
				<g>
					
						<ellipse transform="matrix(0.1858 -0.9826 0.9826 0.1858 -436.193 1614.6199)" class="st14" cx="756.2" cy="1070.5" rx="3.4" ry="6.1"/>
				</g>
			</g>
			<g>
				<g>
					
						<ellipse transform="matrix(6.028803e-02 -0.9982 0.9982 6.028803e-02 -391.7142 1700.1571)" class="st13" cx="707.1" cy="1058.1" rx="6.6" ry="11.6"/>
				</g>
				<g>
					
						<ellipse transform="matrix(6.028803e-02 -0.9982 0.9982 6.028803e-02 -391.7142 1700.1571)" class="st14" cx="707.1" cy="1058.1" rx="3.4" ry="6.1"/>
				</g>
			</g>
			<g>
				<g>
					
						<ellipse transform="matrix(0.9951 -9.844723e-02 9.844723e-02 0.9951 -100.4133 69.6193)" class="st13" cx="655.2" cy="1052.3" rx="13.8" ry="7.8"/>
				</g>
				<g>
					
						<ellipse transform="matrix(0.9951 -9.844723e-02 9.844723e-02 0.9951 -100.4133 69.6193)" class="st14" cx="655.2" cy="1052.3" rx="7.2" ry="4"/>
				</g>
			</g>
			<g>
				<g>
					
						<ellipse transform="matrix(0.814 -0.5809 0.5809 0.814 -429.5564 759.1555)" class="st13" cx="970.6" cy="1050.3" rx="13.8" ry="7.8"/>
				</g>
				<g>
					
						<ellipse transform="matrix(0.814 -0.5809 0.5809 0.814 -429.5564 759.1555)" class="st14" cx="970.6" cy="1050.3" rx="7.2" ry="4"/>
				</g>
			</g>
			<g>
				<g>
					
						<ellipse transform="matrix(0.814 -0.5809 0.5809 0.814 -455.7049 738.0977)" class="st13" cx="924.6" cy="1080.6" rx="12.5" ry="8.5"/>
				</g>
				<g>
					
						<ellipse transform="matrix(0.814 -0.5809 0.5809 0.814 -455.7049 738.0977)" class="st14" cx="924.6" cy="1080.6" rx="6.5" ry="4.4"/>
				</g>
			</g>
			<g>
				<g>
					
						<ellipse transform="matrix(0.5787 -0.8155 0.8155 0.5787 -545.1583 1196.8698)" class="st13" cx="885.8" cy="1126.1" rx="13" ry="8.8"/>
				</g>
				<g>
					
						<ellipse transform="matrix(0.5787 -0.8155 0.8155 0.5787 -545.1583 1196.8698)" class="st14" cx="885.8" cy="1126.1" rx="6.8" ry="4.6"/>
				</g>
			</g>
			<g>
				<g>
					
						<ellipse transform="matrix(6.541245e-02 -0.9979 0.9979 6.541245e-02 -379.7542 1971.1235)" class="st13" cx="862.4" cy="1188.3" rx="10.7" ry="8.9"/>
				</g>
				<g>
					
						<ellipse transform="matrix(6.541245e-02 -0.9979 0.9979 6.541245e-02 -379.7542 1971.1235)" class="st14" cx="862.4" cy="1188.3" rx="5.6" ry="4.6"/>
				</g>
			</g>
			<g>
				<g>
					
						<ellipse transform="matrix(0.9042 -0.4271 0.4271 0.9042 -447.6255 488.839)" class="st13" cx="866" cy="1242.4" rx="9" ry="12.7"/>
				</g>
				<g>
					
						<ellipse transform="matrix(0.9042 -0.4271 0.4271 0.9042 -447.6255 488.839)" class="st14" cx="866" cy="1242.4" rx="4.7" ry="6.6"/>
				</g>
			</g>
			<g>
				<g>
					
						<ellipse transform="matrix(0.9734 -0.2292 0.2292 0.9734 -264.9207 243.2135)" class="st13" cx="914.5" cy="1262" rx="8.4" ry="5.3"/>
				</g>
				<g>
					
						<ellipse transform="matrix(0.9734 -0.2292 0.2292 0.9734 -264.9207 243.2135)" class="st14" cx="914.5" cy="1262" rx="4.4" ry="2.8"/>
				</g>
			</g>
			<g>
				<g>
					
						<ellipse transform="matrix(0.9139 -0.406 0.406 0.9139 -416.3502 490.0987)" class="st13" cx="947.1" cy="1226.5" rx="5.3" ry="8.4"/>
				</g>
				<g>
					
						<ellipse transform="matrix(0.9139 -0.406 0.406 0.9139 -416.3502 490.0987)" class="st14" cx="947.1" cy="1226.5" rx="2.8" ry="4.4"/>
				</g>
			</g>
			<g>
				<g>
					
						<ellipse transform="matrix(0.5082 -0.8612 0.8612 0.5082 -620.5404 1054.2996)" class="st13" cx="612.9" cy="1070.5" rx="8.1" ry="5.9"/>
				</g>
				<g>
					
						<ellipse transform="matrix(0.5082 -0.8612 0.8612 0.5082 -620.5404 1054.2996)" class="st14" cx="612.9" cy="1070.5" rx="4.2" ry="3.1"/>
				</g>
			</g>
			<g>
				<g>
					
						<ellipse transform="matrix(0.9578 -0.2873 0.2873 0.9578 -293.2706 219.5524)" class="st13" cx="601.3" cy="1108.9" rx="5.9" ry="8.1"/>
				</g>
				<g>
					
						<ellipse transform="matrix(0.9578 -0.2873 0.2873 0.9578 -293.2706 219.5524)" class="st14" cx="601.3" cy="1108.9" rx="3.1" ry="4.2"/>
				</g>
			</g>
			<g>
				<g>
					
						<ellipse transform="matrix(0.911 -0.4124 0.4124 0.911 -332.7343 386.0733)" class="st13" cx="728.2" cy="964" rx="6.8" ry="9.7"/>
				</g>
				<g>
					
						<ellipse transform="matrix(0.911 -0.4124 0.4124 0.911 -332.7343 386.0733)" class="st14" cx="728.2" cy="964" rx="3.5" ry="5"/>
				</g>
			</g>
			<g>
				<g>
					
						<ellipse transform="matrix(0.911 -0.4124 0.4124 0.911 -323.801 377.8137)" class="st13" cx="713.6" cy="939.2" rx="6.4" ry="9.1"/>
				</g>
				<g>
					
						<ellipse transform="matrix(0.911 -0.4124 0.4124 0.911 -323.801 377.8137)" class="st14" cx="713.6" cy="939.2" rx="3.3" ry="4.7"/>
				</g>
			</g>
			<g>
				<g>
					
						<ellipse transform="matrix(0.8137 -0.5813 0.5813 0.8137 -397.9471 574.1265)" class="st13" cx="696.6" cy="907.8" rx="6.4" ry="9.1"/>
				</g>
				<g>
					
						<ellipse transform="matrix(0.8137 -0.5813 0.5813 0.8137 -397.9471 574.1265)" class="st14" cx="696.6" cy="907.8" rx="3.3" ry="4.7"/>
				</g>
			</g>
			<g>
				<g>
					
						<ellipse transform="matrix(0.6632 -0.7484 0.7484 0.6632 -431.5456 803.7548)" class="st13" cx="677.3" cy="881.4" rx="6" ry="8.6"/>
				</g>
				<g>
					
						<ellipse transform="matrix(0.6632 -0.7484 0.7484 0.6632 -431.5456 803.7548)" class="st14" cx="677.3" cy="881.4" rx="3.1" ry="4.5"/>
				</g>
			</g>
			<g>
				<g>
					
						<ellipse transform="matrix(0.9927 -0.1203 0.1203 0.9927 -100.1077 84.4378)" class="st13" cx="649.2" cy="871.3" rx="6.5" ry="5.1"/>
				</g>
				<g>
					
						<ellipse transform="matrix(0.9927 -0.1203 0.1203 0.9927 -100.1077 84.4378)" class="st14" cx="649.2" cy="871.3" rx="3.4" ry="2.7"/>
				</g>
			</g>
			<g>
				<g>
					
						<ellipse transform="matrix(0.5758 -0.8176 0.8176 0.5758 -462.989 887.7557)" class="st13" cx="624.1" cy="890.1" rx="4.9" ry="3.9"/>
				</g>
				<g>
					
						<ellipse transform="matrix(0.5758 -0.8176 0.8176 0.5758 -462.989 887.7557)" class="st14" cx="624.1" cy="890.1" rx="2.6" ry="2"/>
				</g>
			</g>
			<g>
				<g>
					
						<ellipse transform="matrix(0.9102 -0.4141 0.4141 0.9102 -325.6592 341.5742)" class="st13" cx="624.9" cy="921.8" rx="3" ry="3.8"/>
				</g>
				<g>
					
						<ellipse transform="matrix(0.9102 -0.4141 0.4141 0.9102 -325.6592 341.5742)" class="st14" cx="624.9" cy="921.8" rx="1.5" ry="2"/>
				</g>
			</g>
			<g>
				<g>
					
						<ellipse transform="matrix(0.9004 -0.435 0.435 0.9004 -334.006 453.0503)" class="st13" cx="822.7" cy="956.2" rx="5.4" ry="8.4"/>
				</g>
				<g>
					
						<ellipse transform="matrix(0.9004 -0.435 0.435 0.9004 -334.006 453.0503)" class="st14" cx="822.7" cy="956.2" rx="2.8" ry="4.4"/>
				</g>
			</g>
		</g>
		<linearGradient id="SVGID_6_" gradientUnits="userSpaceOnUse" x1="828.8343" y1="653.947" x2="828.8343" y2="229.0251">
			<stop  offset="0" style="stop-color:#62CFDD"/>
			<stop  offset="1" style="stop-color:#A6E6D7"/>
		</linearGradient>
		<circle class="st15" cx="828.8" cy="627.4" r="26"/>
		<linearGradient id="SVGID_7_" gradientUnits="userSpaceOnUse" x1="880.3345" y1="653.947" x2="880.3345" y2="229.0251">
			<stop  offset="0" style="stop-color:#62CFDD"/>
			<stop  offset="1" style="stop-color:#A6E6D7"/>
		</linearGradient>
		<circle class="st16" cx="880.3" cy="522.6" r="31.6"/>
		<linearGradient id="SVGID_8_" gradientUnits="userSpaceOnUse" x1="815.1325" y1="653.947" x2="815.1325" y2="229.0251">
			<stop  offset="0" style="stop-color:#62CFDD"/>
			<stop  offset="1" style="stop-color:#A6E6D7"/>
		</linearGradient>
		<circle class="st17" cx="815.1" cy="556.6" r="19.5"/>
		<linearGradient id="SVGID_9_" gradientUnits="userSpaceOnUse" x1="854.8799" y1="653.947" x2="854.8799" y2="229.0251">
			<stop  offset="0" style="stop-color:#62CFDD"/>
			<stop  offset="1" style="stop-color:#A6E6D7"/>
		</linearGradient>
		<circle class="st18" cx="854.9" cy="394.2" r="19.5"/>
		<linearGradient id="SVGID_10_" gradientUnits="userSpaceOnUse" x1="896.2858" y1="653.947" x2="896.2858" y2="229.0251">
			<stop  offset="0" style="stop-color:#62CFDD"/>
			<stop  offset="1" style="stop-color:#A6E6D7"/>
		</linearGradient>
		<circle class="st19" cx="896.3" cy="439.3" r="9.7"/>
		<linearGradient id="SVGID_11_" gradientUnits="userSpaceOnUse" x1="810.4586" y1="653.947" x2="810.4586" y2="229.0251">
			<stop  offset="0" style="stop-color:#62CFDD"/>
			<stop  offset="1" style="stop-color:#A6E6D7"/>
		</linearGradient>
		<circle class="st20" cx="810.5" cy="344.6" r="4.9"/>
		<linearGradient id="SVGID_12_" gradientUnits="userSpaceOnUse" x1="819.5434" y1="653.947" x2="819.5434" y2="229.0251">
			<stop  offset="0" style="stop-color:#62CFDD"/>
			<stop  offset="1" style="stop-color:#A6E6D7"/>
		</linearGradient>
		<circle class="st21" cx="819.5" cy="463" r="23.2"/>
		<linearGradient id="SVGID_13_" gradientUnits="userSpaceOnUse" x1="896.7606" y1="653.947" x2="896.7606" y2="229.0251">
			<stop  offset="0" style="stop-color:#62CFDD"/>
			<stop  offset="1" style="stop-color:#A6E6D7"/>
		</linearGradient>
		<circle class="st22" cx="896.8" cy="230.5" r="11.6"/>
		<linearGradient id="SVGID_14_" gradientUnits="userSpaceOnUse" x1="885.8436" y1="653.947" x2="885.8436" y2="229.0251">
			<stop  offset="0" style="stop-color:#62CFDD"/>
			<stop  offset="1" style="stop-color:#A6E6D7"/>
		</linearGradient>
		<circle class="st23" cx="885.8" cy="353.8" r="14.1"/>
		<linearGradient id="SVGID_15_" gradientUnits="userSpaceOnUse" x1="819.1301" y1="653.947" x2="819.1301" y2="229.0251">
			<stop  offset="0" style="stop-color:#62CFDD"/>
			<stop  offset="1" style="stop-color:#A6E6D7"/>
		</linearGradient>
		<circle class="st24" cx="819.1" cy="270.5" r="7.1"/>
	</g>
</g>
</svg>
