<?xml version="1.0" encoding="UTF-8" standalone="no"?>
<!-- Generator: Adobe Illustrator 22.1.0, SVG Export Plug-In . SVG Version: 6.00 Build 0)  -->

<svg
   xmlns:dc="http://purl.org/dc/elements/1.1/"
   xmlns:cc="http://creativecommons.org/ns#"
   xmlns:rdf="http://www.w3.org/1999/02/22-rdf-syntax-ns#"
   xmlns:svg="http://www.w3.org/2000/svg"
   xmlns="http://www.w3.org/2000/svg"
   xmlns:xlink="http://www.w3.org/1999/xlink"
   xmlns:sodipodi="http://sodipodi.sourceforge.net/DTD/sodipodi-0.dtd"
   xmlns:inkscape="http://www.inkscape.org/namespaces/inkscape"
   version="1.1"
   x="0px"
   y="0px"
   viewBox="0 0 839.59277 689.09998"
   xml:space="preserve"
   id="svg782"
   sodipodi:docname="vector_octopus.svg"
   inkscape:version="0.92.3 (unknown)"
   inkscape:export-filename="/home/vemonet/Documents/vemonet.github.io/images/icons/vector_octopus.png"
   inkscape:export-xdpi="96"
   inkscape:export-ydpi="96"
   width="839.59277"
   height="689.09998"><metadata
   id="metadata788"><rdf:RDF><cc:Work
       rdf:about=""><dc:format>image/svg+xml</dc:format><dc:type
         rdf:resource="http://purl.org/dc/dcmitype/StillImage" /></cc:Work></rdf:RDF></metadata><defs
   id="defs786" /><sodipodi:namedview
   pagecolor="#ffffff"
   bordercolor="#666666"
   borderopacity="1"
   objecttolerance="10"
   gridtolerance="10"
   guidetolerance="10"
   inkscape:pageopacity="0"
   inkscape:pageshadow="2"
   inkscape:window-width="2560"
   inkscape:window-height="1329"
   id="namedview784"
   showgrid="false"
   inkscape:zoom="1.7800235"
   inkscape:cx="305.80335"
   inkscape:cy="401.89614"
   inkscape:window-x="0"
   inkscape:window-y="55"
   inkscape:window-maximized="1"
   inkscape:current-layer="Object" />
<style
   type="text/css"
   id="style2">
	.st0{fill:#FFFFFF;}
	.st1{clip-path:url(#SVGID_2_);fill:url(#SVGID_3_);}
	.st2{clip-path:url(#SVGID_2_);}
	.st3{fill:url(#SVGID_4_);}
	.st4{fill:url(#SVGID_5_);}
	.st5{clip-path:url(#SVGID_2_);fill:#004963;}
	.st6{clip-path:url(#SVGID_2_);fill:#004051;}
	.st7{clip-path:url(#SVGID_2_);fill:#006082;}
	.st8{fill:#F99170;}
	.st9{fill:#FFA785;}
	.st10{fill:#FFB03E;}
	.st11{fill:#E26042;}
	.st12{fill:#EF7D5E;}
	.st13{fill:#F9EBD9;}
	.st14{fill:#EFD6BB;}
	.st15{clip-path:url(#SVGID_2_);fill:url(#SVGID_6_);}
	.st16{clip-path:url(#SVGID_2_);fill:url(#SVGID_7_);}
	.st17{clip-path:url(#SVGID_2_);fill:url(#SVGID_8_);}
	.st18{clip-path:url(#SVGID_2_);fill:url(#SVGID_9_);}
	.st19{clip-path:url(#SVGID_2_);fill:url(#SVGID_10_);}
	.st20{clip-path:url(#SVGID_2_);fill:url(#SVGID_11_);}
	.st21{clip-path:url(#SVGID_2_);fill:url(#SVGID_12_);}
	.st22{clip-path:url(#SVGID_2_);fill:url(#SVGID_13_);}
	.st23{clip-path:url(#SVGID_2_);fill:url(#SVGID_14_);}
	.st24{clip-path:url(#SVGID_2_);fill:url(#SVGID_15_);}
</style>
<g
   id="Background"
   transform="translate(-580.31506,-601.2)">
	
</g>
<g
   id="Object"
   transform="translate(-580.31506,-601.2)">
	<g
   id="g779">
		<defs
   id="defs8">
			<circle
   id="SVGID_1_"
   cx="1000"
   cy="750"
   r="584.70001" />
		</defs>
		<clipPath
   id="SVGID_2_">
			<use
   xlink:href="#SVGID_1_"
   style="overflow:visible"
   id="use10"
   x="0"
   y="0"
   width="100%"
   height="100%" />
		</clipPath>
		<linearGradient
   id="SVGID_3_"
   gradientUnits="userSpaceOnUse"
   x1="1005.9097"
   y1="91.122101"
   x2="1005.9097"
   y2="768.21179">
			<stop
   offset="0"
   style="stop-color:#92D4C6"
   id="stop13" />
			<stop
   offset="1"
   style="stop-color:#008CB3"
   id="stop15" />
		</linearGradient>
		
		<g
   class="st2"
   clip-path="url(#SVGID_2_)"
   id="g34">
			<linearGradient
   id="SVGID_4_"
   gradientUnits="userSpaceOnUse"
   x1="1005.9097"
   y1="91.122101"
   x2="1005.9097"
   y2="768.21179">
				<stop
   offset="0"
   style="stop-color:#A6E6D7"
   id="stop20" />
				<stop
   offset="1"
   style="stop-color:#008CB3"
   id="stop22" />
			</linearGradient>
			
			<linearGradient
   id="SVGID_5_"
   gradientUnits="userSpaceOnUse"
   x1="1005.9097"
   y1="91.044197"
   x2="1005.9097"
   y2="768.13391">
				<stop
   offset="0"
   style="stop-color:#A6E6D7"
   id="stop27" />
				<stop
   offset="1"
   style="stop-color:#008CB3"
   id="stop29" />
			</linearGradient>
			
		</g>
		
		
		
		<g
   id="Layer_3_1_"
   class="st2"
   clip-path="url(#SVGID_2_)">
			<g
   id="g58">
				<g
   id="g44">
					<path
   class="st8"
   d="m 1115.7,750.2 c 18.2,7.3 16.3,35 9.5,48.7 -10.9,21.8 -37.5,15.6 -48.7,19.3 z"
   id="path42"
   inkscape:connector-curvature="0"
   style="fill:#f99170" />
				</g>
				<g
   id="g48">
					<path
   class="st9"
   d="m 1122.4,754.6 c 10.8,10.7 8.6,32.6 2.8,44.4 -3.1,6.2 -7.5,10.2 -12.4,12.7 -11.9,-7.9 -2.2,-21.2 9.6,-57.1 z"
   id="path46"
   inkscape:connector-curvature="0"
   style="fill:#ffa785" />
				</g>
				<g
   id="g52">
					<path
   class="st8"
   d="m 884.3,750.2 c -18.2,7.3 -16.3,35 -9.5,48.7 10.9,21.8 37.5,15.6 48.7,19.3 z"
   id="path50"
   inkscape:connector-curvature="0"
   style="fill:#f99170" />
				</g>
				<g
   id="g56">
					<path
   class="st9"
   d="m 877.6,754.6 c -10.8,10.7 -8.6,32.6 -2.8,44.4 3.1,6.2 7.5,10.2 12.4,12.7 11.9,-7.9 2.2,-21.2 -9.6,-57.1 z"
   id="path54"
   inkscape:connector-curvature="0"
   style="fill:#ffa785" />
				</g>
			</g>
			<g
   id="g106">
				<g
   id="g88">
					<g
   id="g62">
						<path
   class="st10"
   d="m 1353.4,1141.3 c 44.3,-6.6 60.2,-57.7 11.4,-76.7 -60.7,-23.6 -137.1,42.2 -216.4,-0.9 62.3,62.3 61.6,226.5 -43.6,226.5 -100.8,0 -81.9,-101.5 -23,-101.5 -51,39.8 -16.3,70.6 16.8,70.6 49.3,0 48.8,-86.4 -5.1,-150.4 -39.4,-46.8 -80.6,-47.9 -93.4,-91.5 -12.8,43.6 -53.9,44.7 -93.4,91.5 -53.9,64 -54.4,150.4 -5.1,150.4 33,0 67.7,-30.7 16.8,-70.6 58.9,0 77.8,101.5 -23,101.5 -105.2,0 -106,-164.2 -43.6,-226.5 -79.3,43.1 -155.6,-22.7 -216.4,0.9 -48.9,19 -32.9,70 11.4,76.7 -74.7,4.4 -82.9,-71.7 -42.3,-105.4 60,-49.8 117.5,-12 185.1,-23.8 -84.9,-10.7 -85.8,-136.6 -135.9,-136.6 -31.1,0 -46.9,37.5 -9.4,71.2 -58.1,-18.2 -46.3,-98.1 18.1,-98.1 70.7,0 71.9,119.8 171.4,119.8 -83.1,-71.2 1.8,-165.8 -20.6,-192.3 -17.8,-21 -62.3,-8.2 -51.6,35.3 -26.8,-38.3 24.9,-92.4 67.4,-57.9 47.4,38.5 -37.5,170.8 54.1,170.8 54.7,0 47.3,-59.5 22.3,-112.9 -60.4,-128 -34.2,-210.1 94.6,-210.1 128.8,0 155,82 94.9,210.1 -25.1,53.4 -32.4,112.9 22.3,112.9 91.5,0 6.7,-132.3 54.1,-170.8 42.5,-34.5 94.2,19.6 67.4,57.9 10.7,-43.5 -33.8,-56.3 -51.6,-35.3 -22.4,26.4 62.5,121.1 -20.6,192.3 99.5,0 100.7,-119.8 171.4,-119.8 64.4,0 76.2,79.9 18.1,98.1 37.6,-33.7 21.8,-71.2 -9.4,-71.2 -50.2,0 -51,126 -135.9,136.6 67.6,11.8 125.1,-26.1 185.1,23.8 40.5,33.7 32.3,109.8 -42.4,105.4 z"
   id="path60"
   inkscape:connector-curvature="0"
   style="fill:#ffb03e" />
					</g>
					<g
   id="g66">
						<path
   class="st11"
   d="m 1353.4,1141.3 c 74.7,-6.4 61.8,-74.6 15,-92.8 -58.2,-22.6 -152,49.8 -227.9,8.6 4.3,2.9 5.7,3.9 8,6.7 62.3,62.3 61.6,226.5 -43.6,226.5 -100.8,0 -81.9,-101.5 -23,-101.5 -62.5,34.2 -31.7,79.2 24.3,79.2 65.7,0 47.7,-112.1 -3.9,-173.4 -37.8,-44.8 -89.9,-48 -102.1,-89.8 -12.2,41.8 -64.4,45 -102.1,89.8 -51.6,61.3 -69.6,173.4 -3.9,173.4 56.1,0 86.8,-44.9 24.3,-79.2 58.9,0 77.8,101.5 -23,101.5 -105.2,0 -106,-164.2 -43.6,-226.5 2.2,-2.7 3.7,-3.8 8,-6.7 -75.9,41.2 -169.8,-31.2 -227.9,-8.6 -46.8,18.2 -59.7,86.4 15,92.8 -74.7,4.4 -82.9,-71.7 -42.3,-105.4 60,-49.8 117.5,-12 185.1,-23.8 3.9,-0.4 8.8,-0.9 12.8,-1.6 -81.3,-10.2 -88.3,-135.8 -142.5,-144.8 -31.1,-5.1 -69.6,40.7 -15.6,80.9 -0.9,-0.3 -1.8,-0.6 -2.7,-0.9 -55,-19.8 -42.5,-97.2 20.9,-97.2 70.7,0 71.9,119.8 171.4,119.8 1.9,-0.3 3.7,-0.5 7.1,-1 -79.6,-68.2 1.6,-162.9 -18.8,-196.4 -20.7,-34.1 -75.5,-4 -60.6,40.3 -26.8,-38.3 24.9,-92.4 67.4,-57.9 47.4,38.5 -37.5,170.8 54.1,170.8 54.7,0 47.3,-59.5 22.3,-112.9 C 845,683.4 871.2,601.3 1000,601.3 c 128.8,0 155,82 94.9,210.1 -25.1,53.4 -32.4,112.9 22.3,112.9 91.5,0 6.7,-132.3 54.1,-170.8 42.5,-34.5 94.2,19.6 67.4,57.9 14.9,-44.3 -39.9,-74.4 -60.6,-40.3 -20.3,33.5 60.8,128.2 -18.8,196.4 3.4,0.5 5.2,0.6 7.1,1 99.5,0 100.7,-119.8 171.4,-119.8 63.4,0 75.8,77.4 20.9,97.2 -0.9,0.3 -1.8,0.6 -2.7,0.9 54,-40.2 15.5,-86.1 -15.6,-80.9 -54.2,9 -61.2,134.6 -142.5,144.8 4,0.7 8.9,1.2 12.8,1.6 67.6,11.8 125.1,-26.1 185.1,23.8 40.5,33.5 32.3,109.6 -42.4,105.2 z"
   id="path64"
   inkscape:connector-curvature="0"
   style="fill:#e26042" />
					</g>
					<g
   id="g70">
						<path
   class="st12"
   d="m 1261,1044.6 c -41.7,16.1 -93,16.5 -136.4,2.9 11.9,6.9 43,42.1 45.6,85.6 2.6,43.6 -24.2,32.7 -32.8,10.8 -38.4,-98 -137.4,-104.7 -137.4,-167.6 0,62.9 -99,69.6 -137.4,167.6 -8.6,21.9 -35.4,32.8 -32.8,-10.8 2.6,-43.6 33.7,-78.8 45.6,-85.6 -43.5,13.7 -94.7,13.2 -136.4,-2.9 -24.3,-9.4 -21.5,-19.5 41.7,-21.8 63.1,-2.2 57.4,-27.6 57.4,-27.6 -61.9,12.4 -85.3,-32.7 -91,-47.9 -5.7,-15.2 75.1,64.1 136.7,1.3 -28.5,5.1 -77.5,-33.7 -65,-75.2 14.7,-48.6 -7.9,35.6 44.7,52.3 40.6,12.9 72.3,-11.7 72.3,-47.9 0,-28.4 -21.1,-53.7 -36.9,-80.2 -51.9,-120.2 -23,-196.4 101.1,-196.4 124.1,0 153,76.2 101.1,196.4 -15.7,26.5 -36.9,51.7 -36.9,80.2 0,36.2 31.8,60.8 72.3,47.9 52.7,-16.8 30,-101 44.7,-52.3 12.5,41.5 -36.5,80.3 -65,75.2 61.6,62.8 142.4,-16.5 136.7,-1.3 -5.7,15.2 -29.2,60.3 -91,47.9 0,0 -5.7,25.4 57.4,27.6 63.2,2.2 66,12.4 41.7,21.8 z"
   id="path68"
   inkscape:connector-curvature="0"
   style="fill:#ef7d5e" />
					</g>
					<g
   id="g74">
						<path
   class="st8"
   d="m 1000,944.4 c -44,148.7 -203.9,67.6 -133.6,29.7 68.6,-36.9 110.4,-95.9 64.9,-158.7 -39.6,-54.6 -76.9,-126.5 -33,-180.3 19.4,-23.7 63.6,-33.7 101.7,-33.7 38.1,0 82.3,10 101.7,33.7 43.9,53.8 6.6,125.7 -33,180.3 -45.5,62.8 -3.7,121.8 64.9,158.7 70.3,37.8 -89.6,119 -133.6,-29.7 z"
   id="path72"
   inkscape:connector-curvature="0"
   style="fill:#f99170" />
					</g>
					<g
   id="g78">
						<path
   class="st9"
   d="m 1000,762.9 c -70.8,0 -112.1,-42.6 -105.3,-83.1 6.8,-40.5 45,-73.4 105.3,-73.4 60.2,0 98.5,32.9 105.3,73.4 6.8,40.5 -34.5,83.1 -105.3,83.1 z"
   id="path76"
   inkscape:connector-curvature="0"
   style="fill:#ffa785"
   inkscape:export-xdpi="96"
   inkscape:export-ydpi="96" />
					</g>
					<g
   id="g82">
						<path
   class="st9"
   d="m 1018,948.9 c 3.2,17.8 11.1,35 23.4,47.9 20.5,21.4 49.8,28 81.4,11.7 0.6,-0.3 0.8,-1 0.5,-1.5 -0.5,-0.9 -1.5,-0.5 -1.5,-0.5 -30.6,13.2 -57.1,5.7 -74.4,-15 -10.2,-12.3 -16.3,-28.1 -18,-44.2 -0.3,-3.1 -3.2,-5.4 -6.3,-5.1 -3.1,0.3 -5.4,3.2 -5.1,6.3 0,0.1 0,0.3 0,0.4 z"
   id="path80"
   inkscape:connector-curvature="0"
   style="fill:#ffa785" />
					</g>
					<g
   id="g86">
						<path
   class="st9"
   d="m 982,948.9 c -3.2,17.8 -11.1,35 -23.4,47.9 -20.5,21.4 -49.8,28 -81.4,11.7 -0.6,-0.3 -0.8,-1 -0.5,-1.5 0.5,-0.9 1.5,-0.5 1.5,-0.5 30.6,13.2 57.1,5.7 74.4,-15 10.2,-12.3 16.3,-28.1 18,-44.2 0.3,-3.1 3.2,-5.4 6.3,-5.1 3.1,0.3 5.4,3.2 5.1,6.3 0,0.1 0,0.3 0,0.4 z"
   id="path84"
   inkscape:connector-curvature="0"
   style="fill:#ffa785" />
					</g>
				</g>
				<g
   id="g92">
					<path
   class="st12"
   d="m 1385.8,911.1 c 4.9,-29.7 -27.8,-71.8 -68.3,-37.5 -11,9.3 -30,0.6 -7.9,-15.4 33.1,-24 99.1,2.2 76.2,52.9 z"
   id="path90"
   inkscape:connector-curvature="0"
   style="fill:#ef7d5e" />
				</g>
				<g
   id="g96">
					<path
   class="st12"
   d="m 1389.6,1052.5 c -25.4,-16.3 -5.3,-29.1 10.8,-12.2 17.9,18.7 26.3,50.2 10.2,73.8 5.2,-17.4 -0.5,-48.4 -21,-61.6 z"
   id="path94"
   inkscape:connector-curvature="0"
   style="fill:#ef7d5e" />
				</g>
				<g
   id="g100">
					<path
   class="st12"
   d="m 614.2,911.1 c -4.9,-29.7 27.8,-71.8 68.3,-37.5 11,9.3 30,0.6 7.9,-15.4 -33.1,-24 -99.1,2.2 -76.2,52.9 z"
   id="path98"
   inkscape:connector-curvature="0"
   style="fill:#ef7d5e" />
				</g>
				<g
   id="g104">
					<path
   class="st12"
   d="m 610.4,1052.5 c 25.4,-16.3 5.3,-29.1 -10.8,-12.2 -17.9,18.7 -26.3,50.2 -10.2,73.8 -5.2,-17.4 0.5,-48.4 21,-61.6 z"
   id="path102"
   inkscape:connector-curvature="0"
   style="fill:#ef7d5e" />
				</g>
			</g>
			<g
   id="g116">
				<g
   id="g110">
					
						<ellipse
   transform="matrix(0.6137,-0.7896,0.7896,0.6137,-135.0409,1267.6127)"
   class="st13"
   cx="1227.8"
   cy="771.79999"
   rx="2.5"
   ry="4.6999998"
   id="ellipse108"
   style="fill:#f9ebd9" />
				</g>
				<g
   id="g114">
					
						<ellipse
   transform="matrix(0.6137,-0.7896,0.7896,0.6137,-135.0409,1267.6127)"
   class="st14"
   cx="1227.8"
   cy="771.79999"
   rx="1.3"
   ry="2.4000001"
   id="ellipse112"
   style="fill:#efd6bb" />
				</g>
			</g>
			<g
   id="g126">
				<g
   id="g120">
					
						<ellipse
   transform="matrix(0.1914,-0.9815,0.9815,0.1914,228.941,1803.6779)"
   class="st13"
   cx="1209.1"
   cy="762.90002"
   rx="4.1999998"
   ry="7.5999999"
   id="ellipse118"
   style="fill:#f9ebd9" />
				</g>
				<g
   id="g124">
					
						<ellipse
   transform="matrix(0.1914,-0.9815,0.9815,0.1914,228.941,1803.6779)"
   class="st14"
   cx="1209.1"
   cy="762.90002"
   rx="2.2"
   ry="3.9000001"
   id="ellipse122"
   style="fill:#efd6bb" />
				</g>
			</g>
			<g
   id="g136">
				<g
   id="g130">
					
						<ellipse
   transform="matrix(0.6931,-0.7209,0.7209,0.6931,-190.4639,1091.1085)"
   class="st13"
   cx="1186.1"
   cy="769.20001"
   rx="7.1999998"
   ry="5.1999998"
   id="ellipse128"
   style="fill:#f9ebd9" />
				</g>
				<g
   id="g134">
					
						<ellipse
   transform="matrix(0.6931,-0.7209,0.7209,0.6931,-190.4639,1091.1085)"
   class="st14"
   cx="1186.1"
   cy="769.20001"
   rx="3.7"
   ry="2.7"
   id="ellipse132"
   style="fill:#efd6bb" />
				</g>
			</g>
			<g
   id="g146">
				<g
   id="g140">
					
						<ellipse
   transform="matrix(0.994,-0.109,0.109,0.994,-78.9897,133.2714)"
   class="st13"
   cx="1179.9"
   cy="789.40002"
   rx="4.9000001"
   ry="7.1999998"
   id="ellipse138"
   style="fill:#f9ebd9" />
				</g>
				<g
   id="g144">
					
						<ellipse
   transform="matrix(0.994,-0.109,0.109,0.994,-78.9897,133.2714)"
   class="st14"
   cx="1179.9"
   cy="789.40002"
   rx="2.5"
   ry="3.7"
   id="ellipse142"
   style="fill:#efd6bb" />
				</g>
			</g>
			<g
   id="g156">
				<g
   id="g150">
					
						<ellipse
   transform="matrix(0.9538,-0.3004,0.3004,0.9538,-189.4882,393.1585)"
   class="st13"
   cx="1183.8"
   cy="812.79999"
   rx="4.1999998"
   ry="7.1999998"
   id="ellipse148"
   style="fill:#f9ebd9" />
				</g>
				<g
   id="g154">
					
						<ellipse
   transform="matrix(0.9538,-0.3004,0.3004,0.9538,-189.4882,393.1585)"
   class="st14"
   cx="1183.8"
   cy="812.79999"
   rx="2.2"
   ry="3.7"
   id="ellipse152"
   style="fill:#efd6bb" />
				</g>
			</g>
			<g
   id="g166">
				<g
   id="g160">
					
						<ellipse
   transform="matrix(0.9538,-0.3004,0.3004,0.9538,-197.1433,396.9293)"
   class="st13"
   cx="1192.3"
   cy="839.59998"
   rx="5"
   ry="7.1999998"
   id="ellipse158"
   style="fill:#f9ebd9" />
				</g>
				<g
   id="g164">
					
						<ellipse
   transform="matrix(0.9538,-0.3004,0.3004,0.9538,-197.1433,396.9293)"
   class="st14"
   cx="1192.3"
   cy="839.59998"
   rx="2.5999999"
   ry="3.7"
   id="ellipse162"
   style="fill:#efd6bb" />
				</g>
			</g>
			<g
   id="g176">
				<g
   id="g170">
					
						<ellipse
   transform="matrix(0.9921,-0.1255,0.1255,0.9921,-100.0949,157.3957)"
   class="st13"
   cx="1199"
   cy="873"
   rx="6.0999999"
   ry="7.1999998"
   id="ellipse168"
   style="fill:#f9ebd9" />
				</g>
				<g
   id="g174">
					
						<ellipse
   transform="matrix(0.9921,-0.1255,0.1255,0.9921,-100.0949,157.3957)"
   class="st14"
   cx="1199"
   cy="873"
   rx="3.2"
   ry="3.7"
   id="ellipse172"
   style="fill:#efd6bb" />
				</g>
			</g>
			<g
   id="g186">
				<g
   id="g180">
					
						<ellipse
   transform="matrix(0.435,-0.9004,0.9004,0.435,-146.4699,1596.6425)"
   class="st13"
   cx="1199"
   cy="915"
   rx="7.1999998"
   ry="6.0999999"
   id="ellipse178"
   style="fill:#f9ebd9" />
				</g>
				<g
   id="g184">
					
						<ellipse
   transform="matrix(0.435,-0.9004,0.9004,0.435,-146.4699,1596.6425)"
   class="st14"
   cx="1199"
   cy="915"
   rx="3.7"
   ry="3.2"
   id="ellipse182"
   style="fill:#efd6bb" />
				</g>
			</g>
			<g
   id="g196">
				<g
   id="g190">
					
						<ellipse
   transform="matrix(0.7898,-0.6133,0.6133,0.7898,-345.2593,974.7428)"
   class="st13"
   cx="1249.7"
   cy="991.20001"
   rx="11.1"
   ry="6.3000002"
   id="ellipse188"
   style="fill:#f9ebd9" />
				</g>
				<g
   id="g194">
					
						<ellipse
   transform="matrix(0.7898,-0.6133,0.6133,0.7898,-345.2593,974.7428)"
   class="st14"
   cx="1249.7"
   cy="991.20001"
   rx="5.8000002"
   ry="3.3"
   id="ellipse192"
   style="fill:#efd6bb" />
				</g>
			</g>
			<g
   id="g206">
				<g
   id="g200">
					
						<ellipse
   transform="matrix(0.9989,-0.04719091,0.04719091,0.9989,-49.3745,58.0679)"
   class="st13"
   cx="1205.1"
   cy="1074.7"
   rx="9.5"
   ry="5.4000001"
   id="ellipse198"
   style="fill:#f9ebd9" />
				</g>
				<g
   id="g204">
					
						<ellipse
   transform="matrix(0.9989,-0.04719091,0.04719091,0.9989,-49.3745,58.0679)"
   class="st14"
   cx="1205.1"
   cy="1074.7"
   rx="5"
   ry="2.8"
   id="ellipse202"
   style="fill:#efd6bb" />
				</g>
			</g>
			<g
   id="g216">
				<g
   id="g210">
					
						<ellipse
   transform="matrix(0.9826,-0.1858,0.1858,0.9826,-177.2821,249.7972)"
   class="st13"
   cx="1243.8"
   cy="1070.5"
   rx="11.6"
   ry="6.5999999"
   id="ellipse208"
   style="fill:#f9ebd9" />
				</g>
				<g
   id="g214">
					
						<ellipse
   transform="matrix(0.9826,-0.1858,0.1858,0.9826,-177.2821,249.7972)"
   class="st14"
   cx="1243.8"
   cy="1070.5"
   rx="6.0999999"
   ry="3.4000001"
   id="ellipse212"
   style="fill:#efd6bb" />
				</g>
			</g>
			<g
   id="g226">
				<g
   id="g220">
					
						<ellipse
   transform="matrix(0.9982,-0.06028803,0.06028803,0.9982,-61.4404,79.8703)"
   class="st13"
   cx="1292.9"
   cy="1058.1"
   rx="11.6"
   ry="6.5999999"
   id="ellipse218"
   style="fill:#f9ebd9" />
				</g>
				<g
   id="g224">
					
						<ellipse
   transform="matrix(0.9982,-0.06028803,0.06028803,0.9982,-61.4404,79.8703)"
   class="st14"
   cx="1292.9"
   cy="1058.1"
   rx="6.0999999"
   ry="3.4000001"
   id="ellipse222"
   style="fill:#efd6bb" />
				</g>
			</g>
			<g
   id="g236">
				<g
   id="g230">
					
						<ellipse
   transform="matrix(0.09844723,-0.9951,0.9951,0.09844723,165.172,2286.9255)"
   class="st13"
   cx="1344.8"
   cy="1052.3"
   rx="7.8000002"
   ry="13.8"
   id="ellipse228"
   style="fill:#f9ebd9" />
				</g>
				<g
   id="g234">
					
						<ellipse
   transform="matrix(0.09844723,-0.9951,0.9951,0.09844723,165.172,2286.9255)"
   class="st14"
   cx="1344.8"
   cy="1052.3"
   rx="4"
   ry="7.1999998"
   id="ellipse232"
   style="fill:#efd6bb" />
				</g>
			</g>
			<g
   id="g246">
				<g
   id="g240">
					
						<ellipse
   transform="matrix(0.5809,-0.814,0.814,0.5809,-423.4887,1278.1392)"
   class="st13"
   cx="1029.4"
   cy="1050.3"
   rx="7.8000002"
   ry="13.8"
   id="ellipse238"
   style="fill:#f9ebd9" />
				</g>
				<g
   id="g244">
					
						<ellipse
   transform="matrix(0.5809,-0.814,0.814,0.5809,-423.4887,1278.1392)"
   class="st14"
   cx="1029.4"
   cy="1050.3"
   rx="4"
   ry="7.1999998"
   id="ellipse242"
   style="fill:#efd6bb" />
				</g>
			</g>
			<g
   id="g256">
				<g
   id="g250">
					
						<ellipse
   transform="matrix(0.5809,-0.814,0.814,0.5809,-428.8935,1328.246)"
   class="st13"
   cx="1075.4"
   cy="1080.6"
   rx="8.5"
   ry="12.5"
   id="ellipse248"
   style="fill:#f9ebd9" />
				</g>
				<g
   id="g254">
					
						<ellipse
   transform="matrix(0.5809,-0.814,0.814,0.5809,-428.8935,1328.246)"
   class="st14"
   cx="1075.4"
   cy="1080.6"
   rx="4.4000001"
   ry="6.5"
   id="ellipse252"
   style="fill:#efd6bb" />
				</g>
			</g>
			<g
   id="g266">
				<g
   id="g260">
					
						<ellipse
   transform="matrix(0.8155,-0.5787,0.5787,0.8155,-446.1444,852.4673)"
   class="st13"
   cx="1114.2"
   cy="1126.1"
   rx="8.8000002"
   ry="13"
   id="ellipse258"
   style="fill:#f9ebd9" />
				</g>
				<g
   id="g264">
					
						<ellipse
   transform="matrix(0.8155,-0.5787,0.5787,0.8155,-446.1444,852.4673)"
   class="st14"
   cx="1114.2"
   cy="1126.1"
   rx="4.5999999"
   ry="6.8000002"
   id="ellipse262"
   style="fill:#efd6bb" />
				</g>
			</g>
			<g
   id="g276">
				<g
   id="g270">
					
						<ellipse
   transform="matrix(0.9979,-0.06541245,0.06541245,0.9979,-75.2928,76.9577)"
   class="st13"
   cx="1137.6"
   cy="1188.3"
   rx="8.8999996"
   ry="10.7"
   id="ellipse268"
   style="fill:#f9ebd9" />
				</g>
				<g
   id="g274">
					
						<ellipse
   transform="matrix(0.9979,-0.06541245,0.06541245,0.9979,-75.2928,76.9577)"
   class="st14"
   cx="1137.6"
   cy="1188.3"
   rx="4.5999999"
   ry="5.5999999"
   id="ellipse272"
   style="fill:#efd6bb" />
				</g>
			</g>
			<g
   id="g286">
				<g
   id="g280">
					
						<ellipse
   transform="matrix(0.4271,-0.9042,0.9042,0.4271,-473.7004,1737.171)"
   class="st13"
   cx="1134"
   cy="1242.4"
   rx="12.7"
   ry="9"
   id="ellipse278"
   style="fill:#f9ebd9" />
				</g>
				<g
   id="g284">
					
						<ellipse
   transform="matrix(0.4271,-0.9042,0.9042,0.4271,-473.7004,1737.171)"
   class="st14"
   cx="1134"
   cy="1242.4"
   rx="6.5999999"
   ry="4.6999998"
   id="ellipse282"
   style="fill:#efd6bb" />
				</g>
			</g>
			<g
   id="g296">
				<g
   id="g290">
					
						<ellipse
   transform="matrix(0.2292,-0.9734,0.9734,0.2292,-391.6659,2029.3358)"
   class="st13"
   cx="1085.5"
   cy="1262"
   rx="5.3000002"
   ry="8.3999996"
   id="ellipse288"
   style="fill:#f9ebd9" />
				</g>
				<g
   id="g294">
					
						<ellipse
   transform="matrix(0.2292,-0.9734,0.9734,0.2292,-391.6659,2029.3358)"
   class="st14"
   cx="1085.5"
   cy="1262"
   rx="2.8"
   ry="4.4000001"
   id="ellipse292"
   style="fill:#efd6bb" />
				</g>
			</g>
			<g
   id="g306">
				<g
   id="g300">
					
						<ellipse
   transform="matrix(0.406,-0.9139,0.9139,0.406,-495.4427,1690.8162)"
   class="st13"
   cx="1052.9"
   cy="1226.5"
   rx="8.3999996"
   ry="5.3000002"
   id="ellipse298"
   style="fill:#f9ebd9" />
				</g>
				<g
   id="g304">
					
						<ellipse
   transform="matrix(0.406,-0.9139,0.9139,0.406,-495.4427,1690.8162)"
   class="st14"
   cx="1052.9"
   cy="1226.5"
   rx="4.4000001"
   ry="2.8"
   id="ellipse302"
   style="fill:#efd6bb" />
				</g>
			</g>
			<g
   id="g316">
				<g
   id="g310">
					
						<ellipse
   transform="matrix(0.8612,-0.5082,0.5082,0.8612,-351.578,853.5398)"
   class="st13"
   cx="1387.1"
   cy="1070.5"
   rx="5.9000001"
   ry="8.1000004"
   id="ellipse308"
   style="fill:#f9ebd9" />
				</g>
				<g
   id="g314">
					
						<ellipse
   transform="matrix(0.8612,-0.5082,0.5082,0.8612,-351.578,853.5398)"
   class="st14"
   cx="1387.1"
   cy="1070.5"
   rx="3.0999999"
   ry="4.1999998"
   id="ellipse312"
   style="fill:#efd6bb" />
				</g>
			</g>
			<g
   id="g326">
				<g
   id="g320">
					
						<ellipse
   transform="matrix(0.2873,-0.9578,0.9578,0.2873,-65.3556,2129.9402)"
   class="st13"
   cx="1398.7"
   cy="1108.9"
   rx="8.1000004"
   ry="5.9000001"
   id="ellipse318"
   style="fill:#f9ebd9" />
				</g>
				<g
   id="g324">
					
						<ellipse
   transform="matrix(0.2873,-0.9578,0.9578,0.2873,-65.3556,2129.9402)"
   class="st14"
   cx="1398.7"
   cy="1108.9"
   rx="4.1999998"
   ry="3.0999999"
   id="ellipse322"
   style="fill:#efd6bb" />
				</g>
			</g>
			<g
   id="g336">
				<g
   id="g330">
					
						<ellipse
   transform="matrix(0.4124,-0.911,0.911,0.4124,-130.9141,1725.1143)"
   class="st13"
   cx="1271.8"
   cy="964"
   rx="9.6999998"
   ry="6.8000002"
   id="ellipse328"
   style="fill:#f9ebd9" />
				</g>
				<g
   id="g334">
					
						<ellipse
   transform="matrix(0.4124,-0.911,0.911,0.4124,-130.9141,1725.1143)"
   class="st14"
   cx="1271.8"
   cy="964"
   rx="5"
   ry="3.5"
   id="ellipse332"
   style="fill:#efd6bb" />
				</g>
			</g>
			<g
   id="g346">
				<g
   id="g340">
					
						<ellipse
   transform="matrix(0.4124,-0.911,0.911,0.4124,-99.6719,1723.8901)"
   class="st13"
   cx="1286.4"
   cy="939.20001"
   rx="9.1000004"
   ry="6.4000001"
   id="ellipse338"
   style="fill:#f9ebd9" />
				</g>
				<g
   id="g344">
					
						<ellipse
   transform="matrix(0.4124,-0.911,0.911,0.4124,-99.6719,1723.8901)"
   class="st14"
   cx="1286.4"
   cy="939.20001"
   rx="4.6999998"
   ry="3.3"
   id="ellipse342"
   style="fill:#efd6bb" />
				</g>
			</g>
			<g
   id="g356">
				<g
   id="g350">
					
						<ellipse
   transform="matrix(0.5813,-0.8137,0.8137,0.5813,-192.9988,1440.6042)"
   class="st13"
   cx="1303.4"
   cy="907.79999"
   rx="9.1000004"
   ry="6.4000001"
   id="ellipse348"
   style="fill:#f9ebd9" />
				</g>
				<g
   id="g354">
					
						<ellipse
   transform="matrix(0.5813,-0.8137,0.8137,0.5813,-192.9988,1440.6042)"
   class="st14"
   cx="1303.4"
   cy="907.79999"
   rx="4.6999998"
   ry="3.3"
   id="ellipse352"
   style="fill:#efd6bb" />
				</g>
			</g>
			<g
   id="g366">
				<g
   id="g360">
					
						<ellipse
   transform="matrix(0.7484,-0.6632,0.6632,0.7484,-251.7912,1098.9495)"
   class="st13"
   cx="1322.7"
   cy="881.40002"
   rx="8.6000004"
   ry="6"
   id="ellipse358"
   style="fill:#f9ebd9" />
				</g>
				<g
   id="g364">
					
						<ellipse
   transform="matrix(0.7484,-0.6632,0.6632,0.7484,-251.7912,1098.9495)"
   class="st14"
   cx="1322.7"
   cy="881.40002"
   rx="4.5"
   ry="3.0999999"
   id="ellipse362"
   style="fill:#efd6bb" />
				</g>
			</g>
			<g
   id="g376">
				<g
   id="g370">
					
						<ellipse
   transform="matrix(0.1203,-0.9927,0.9927,0.1203,323.3318,2107.4077)"
   class="st13"
   cx="1350.8"
   cy="871.29999"
   rx="5.0999999"
   ry="6.5"
   id="ellipse368"
   style="fill:#f9ebd9" />
				</g>
				<g
   id="g374">
					
						<ellipse
   transform="matrix(0.1203,-0.9927,0.9927,0.1203,323.3318,2107.4077)"
   class="st14"
   cx="1350.8"
   cy="871.29999"
   rx="2.7"
   ry="3.4000001"
   id="ellipse372"
   style="fill:#efd6bb" />
				</g>
			</g>
			<g
   id="g386">
				<g
   id="g380">
					
						<ellipse
   transform="matrix(0.8176,-0.5758,0.5758,0.8176,-261.514,954.674)"
   class="st13"
   cx="1375.9"
   cy="890.09998"
   rx="3.9000001"
   ry="4.9000001"
   id="ellipse378"
   style="fill:#f9ebd9" />
				</g>
				<g
   id="g384">
					
						<ellipse
   transform="matrix(0.8176,-0.5758,0.5758,0.8176,-261.514,954.674)"
   class="st14"
   cx="1375.9"
   cy="890.09998"
   rx="2"
   ry="2.5999999"
   id="ellipse382"
   style="fill:#efd6bb" />
				</g>
			</g>
			<g
   id="g396">
				<g
   id="g390">
					
						<ellipse
   transform="matrix(0.4141,-0.9102,0.9102,0.4141,-33.4737,1791.6837)"
   class="st13"
   cx="1375.1"
   cy="921.79999"
   rx="3.8"
   ry="3"
   id="ellipse388"
   style="fill:#f9ebd9" />
				</g>
				<g
   id="g394">
					
						<ellipse
   transform="matrix(0.4141,-0.9102,0.9102,0.4141,-33.4737,1791.6837)"
   class="st14"
   cx="1375.1"
   cy="921.79999"
   rx="2"
   ry="1.5"
   id="ellipse392"
   style="fill:#efd6bb" />
				</g>
			</g>
			<g
   id="g406">
				<g
   id="g400">
					
						<ellipse
   transform="matrix(0.435,-0.9004,0.9004,0.435,-195.7982,1600.3522)"
   class="st13"
   cx="1177.3"
   cy="956.20001"
   rx="8.3999996"
   ry="5.4000001"
   id="ellipse398"
   style="fill:#f9ebd9" />
				</g>
				<g
   id="g404">
					
						<ellipse
   transform="matrix(0.435,-0.9004,0.9004,0.435,-195.7982,1600.3522)"
   class="st14"
   cx="1177.3"
   cy="956.20001"
   rx="4.4000001"
   ry="2.8"
   id="ellipse402"
   style="fill:#efd6bb" />
				</g>
			</g>
			<g
   id="g416">
				<g
   id="g410">
					
						<ellipse
   transform="matrix(0.7896,-0.6137,0.6137,0.7896,-311.1392,636.2786)"
   class="st13"
   cx="772.20001"
   cy="771.79999"
   rx="4.6999998"
   ry="2.5"
   id="ellipse408"
   style="fill:#f9ebd9" />
				</g>
				<g
   id="g414">
					
						<ellipse
   transform="matrix(0.7896,-0.6137,0.6137,0.7896,-311.1392,636.2786)"
   class="st14"
   cx="772.20001"
   cy="771.79999"
   rx="2.4000001"
   ry="1.3"
   id="ellipse412"
   style="fill:#efd6bb" />
				</g>
			</g>
			<g
   id="g426">
				<g
   id="g420">
					
						<ellipse
   transform="matrix(0.9815,-0.1914,0.1914,0.9815,-131.3899,165.4635)"
   class="st13"
   cx="790.90002"
   cy="762.90002"
   rx="7.5999999"
   ry="4.1999998"
   id="ellipse418"
   style="fill:#f9ebd9" />
				</g>
				<g
   id="g424">
					
						<ellipse
   transform="matrix(0.9815,-0.1914,0.1914,0.9815,-131.3899,165.4635)"
   class="st14"
   cx="790.90002"
   cy="762.90002"
   rx="3.9000001"
   ry="2.2"
   id="ellipse422"
   style="fill:#efd6bb" />
				</g>
			</g>
			<g
   id="g436">
				<g
   id="g430">
					
						<ellipse
   transform="matrix(0.7209,-0.6931,0.6931,0.7209,-305.9366,778.814)"
   class="st13"
   cx="813.90002"
   cy="769.20001"
   rx="5.1999998"
   ry="7.1999998"
   id="ellipse428"
   style="fill:#f9ebd9" />
				</g>
				<g
   id="g434">
					
						<ellipse
   transform="matrix(0.7209,-0.6931,0.6931,0.7209,-305.9366,778.814)"
   class="st14"
   cx="813.90002"
   cy="769.20001"
   rx="2.7"
   ry="3.7"
   id="ellipse432"
   style="fill:#efd6bb" />
				</g>
			</g>
			<g
   id="g446">
				<g
   id="g440">
					
						<ellipse
   transform="matrix(0.109,-0.994,0.994,0.109,-53.9836,1518.5549)"
   class="st13"
   cx="820.09998"
   cy="789.40002"
   rx="7.1999998"
   ry="4.9000001"
   id="ellipse438"
   style="fill:#f9ebd9" />
				</g>
				<g
   id="g444">
					
						<ellipse
   transform="matrix(0.109,-0.994,0.994,0.109,-53.9836,1518.5549)"
   class="st14"
   cx="820.09998"
   cy="789.40002"
   rx="3.7"
   ry="2.5"
   id="ellipse442"
   style="fill:#efd6bb" />
				</g>
			</g>
			<g
   id="g456">
				<g
   id="g450">
					
						<ellipse
   transform="matrix(0.3004,-0.9538,0.9538,0.3004,-204.2804,1347.1125)"
   class="st13"
   cx="816.20001"
   cy="812.79999"
   rx="7.1999998"
   ry="4.1999998"
   id="ellipse448"
   style="fill:#f9ebd9" />
				</g>
				<g
   id="g454">
					
						<ellipse
   transform="matrix(0.3004,-0.9538,0.9538,0.3004,-204.2804,1347.1125)"
   class="st14"
   cx="816.20001"
   cy="812.79999"
   rx="3.7"
   ry="2.2"
   id="ellipse452"
   style="fill:#efd6bb" />
				</g>
			</g>
			<g
   id="g466">
				<g
   id="g460">
					
						<ellipse
   transform="matrix(0.3004,-0.9538,0.9538,0.3004,-235.7241,1357.803)"
   class="st13"
   cx="807.70001"
   cy="839.59998"
   rx="7.1999998"
   ry="5"
   id="ellipse458"
   style="fill:#f9ebd9" />
				</g>
				<g
   id="g464">
					
						<ellipse
   transform="matrix(0.3004,-0.9538,0.9538,0.3004,-235.7241,1357.803)"
   class="st14"
   cx="807.70001"
   cy="839.59998"
   rx="3.7"
   ry="2.5999999"
   id="ellipse462"
   style="fill:#efd6bb" />
				</g>
			</g>
			<g
   id="g476">
				<g
   id="g470">
					
						<ellipse
   transform="matrix(0.1255,-0.9921,0.9921,0.1255,-165.6304,1558.1165)"
   class="st13"
   cx="801"
   cy="873"
   rx="7.1999998"
   ry="6.0999999"
   id="ellipse468"
   style="fill:#f9ebd9" />
				</g>
				<g
   id="g474">
					
						<ellipse
   transform="matrix(0.1255,-0.9921,0.9921,0.1255,-165.6304,1558.1165)"
   class="st14"
   cx="801"
   cy="873"
   rx="3.7"
   ry="3.2"
   id="ellipse472"
   style="fill:#efd6bb" />
				</g>
			</g>
			<g
   id="g486">
				<g
   id="g480">
					
						<ellipse
   transform="matrix(0.9004,-0.435,0.435,0.9004,-318.2633,439.5099)"
   class="st13"
   cx="801"
   cy="915"
   rx="6.0999999"
   ry="7.1999998"
   id="ellipse478"
   style="fill:#f9ebd9" />
				</g>
				<g
   id="g484">
					
						<ellipse
   transform="matrix(0.9004,-0.435,0.435,0.9004,-318.2633,439.5099)"
   class="st14"
   cx="801"
   cy="915"
   rx="3.2"
   ry="3.7"
   id="ellipse482"
   style="fill:#efd6bb" />
				</g>
			</g>
			<g
   id="g496">
				<g
   id="g490">
					
						<ellipse
   transform="matrix(0.6133,-0.7898,0.7898,0.6133,-492.6999,975.9091)"
   class="st13"
   cx="750.29999"
   cy="991.20001"
   rx="6.3000002"
   ry="11.1"
   id="ellipse488"
   style="fill:#f9ebd9" />
				</g>
				<g
   id="g494">
					
						<ellipse
   transform="matrix(0.6133,-0.7898,0.7898,0.6133,-492.6999,975.9091)"
   class="st14"
   cx="750.29999"
   cy="991.20001"
   rx="3.3"
   ry="5.8000002"
   id="ellipse492"
   style="fill:#efd6bb" />
				</g>
			</g>
			<g
   id="g506">
				<g
   id="g500">
					
						<ellipse
   transform="matrix(0.04719091,-0.9989,0.9989,0.04719091,-316.153,1818.0022)"
   class="st13"
   cx="794.90002"
   cy="1074.7"
   rx="5.4000001"
   ry="9.5"
   id="ellipse498"
   style="fill:#f9ebd9" />
				</g>
				<g
   id="g504">
					
						<ellipse
   transform="matrix(0.04719091,-0.9989,0.9989,0.04719091,-316.153,1818.0022)"
   class="st14"
   cx="794.90002"
   cy="1074.7"
   rx="2.8"
   ry="5"
   id="ellipse502"
   style="fill:#efd6bb" />
				</g>
			</g>
			<g
   id="g516">
				<g
   id="g510">
					
						<ellipse
   transform="matrix(0.1858,-0.9826,0.9826,0.1858,-436.193,1614.6199)"
   class="st13"
   cx="756.20001"
   cy="1070.5"
   rx="6.5999999"
   ry="11.6"
   id="ellipse508"
   style="fill:#f9ebd9" />
				</g>
				<g
   id="g514">
					
						<ellipse
   transform="matrix(0.1858,-0.9826,0.9826,0.1858,-436.193,1614.6199)"
   class="st14"
   cx="756.20001"
   cy="1070.5"
   rx="3.4000001"
   ry="6.0999999"
   id="ellipse512"
   style="fill:#efd6bb" />
				</g>
			</g>
			<g
   id="g526">
				<g
   id="g520">
					
						<ellipse
   transform="matrix(0.06028803,-0.9982,0.9982,0.06028803,-391.7142,1700.1571)"
   class="st13"
   cx="707.09998"
   cy="1058.1"
   rx="6.5999999"
   ry="11.6"
   id="ellipse518"
   style="fill:#f9ebd9" />
				</g>
				<g
   id="g524">
					
						<ellipse
   transform="matrix(0.06028803,-0.9982,0.9982,0.06028803,-391.7142,1700.1571)"
   class="st14"
   cx="707.09998"
   cy="1058.1"
   rx="3.4000001"
   ry="6.0999999"
   id="ellipse522"
   style="fill:#efd6bb" />
				</g>
			</g>
			<g
   id="g536">
				<g
   id="g530">
					
						<ellipse
   transform="matrix(0.9951,-0.09844723,0.09844723,0.9951,-100.4133,69.6193)"
   class="st13"
   cx="655.20001"
   cy="1052.3"
   rx="13.8"
   ry="7.8000002"
   id="ellipse528"
   style="fill:#f9ebd9" />
				</g>
				<g
   id="g534">
					
						<ellipse
   transform="matrix(0.9951,-0.09844723,0.09844723,0.9951,-100.4133,69.6193)"
   class="st14"
   cx="655.20001"
   cy="1052.3"
   rx="7.1999998"
   ry="4"
   id="ellipse532"
   style="fill:#efd6bb" />
				</g>
			</g>
			<g
   id="g546">
				<g
   id="g540">
					
						<ellipse
   transform="matrix(0.814,-0.5809,0.5809,0.814,-429.5564,759.1555)"
   class="st13"
   cx="970.59998"
   cy="1050.3"
   rx="13.8"
   ry="7.8000002"
   id="ellipse538"
   style="fill:#f9ebd9" />
				</g>
				<g
   id="g544">
					
						<ellipse
   transform="matrix(0.814,-0.5809,0.5809,0.814,-429.5564,759.1555)"
   class="st14"
   cx="970.59998"
   cy="1050.3"
   rx="7.1999998"
   ry="4"
   id="ellipse542"
   style="fill:#efd6bb" />
				</g>
			</g>
			<g
   id="g556">
				<g
   id="g550">
					
						<ellipse
   transform="matrix(0.814,-0.5809,0.5809,0.814,-455.7049,738.0977)"
   class="st13"
   cx="924.59998"
   cy="1080.6"
   rx="12.5"
   ry="8.5"
   id="ellipse548"
   style="fill:#f9ebd9" />
				</g>
				<g
   id="g554">
					
						<ellipse
   transform="matrix(0.814,-0.5809,0.5809,0.814,-455.7049,738.0977)"
   class="st14"
   cx="924.59998"
   cy="1080.6"
   rx="6.5"
   ry="4.4000001"
   id="ellipse552"
   style="fill:#efd6bb" />
				</g>
			</g>
			<g
   id="g566">
				<g
   id="g560">
					
						<ellipse
   transform="matrix(0.5787,-0.8155,0.8155,0.5787,-545.1583,1196.8698)"
   class="st13"
   cx="885.79999"
   cy="1126.1"
   rx="13"
   ry="8.8000002"
   id="ellipse558"
   style="fill:#f9ebd9" />
				</g>
				<g
   id="g564">
					
						<ellipse
   transform="matrix(0.5787,-0.8155,0.8155,0.5787,-545.1583,1196.8698)"
   class="st14"
   cx="885.79999"
   cy="1126.1"
   rx="6.8000002"
   ry="4.5999999"
   id="ellipse562"
   style="fill:#efd6bb" />
				</g>
			</g>
			<g
   id="g576">
				<g
   id="g570">
					
						<ellipse
   transform="matrix(0.06541245,-0.9979,0.9979,0.06541245,-379.7542,1971.1235)"
   class="st13"
   cx="862.40002"
   cy="1188.3"
   rx="10.7"
   ry="8.8999996"
   id="ellipse568"
   style="fill:#f9ebd9" />
				</g>
				<g
   id="g574">
					
						<ellipse
   transform="matrix(0.06541245,-0.9979,0.9979,0.06541245,-379.7542,1971.1235)"
   class="st14"
   cx="862.40002"
   cy="1188.3"
   rx="5.5999999"
   ry="4.5999999"
   id="ellipse572"
   style="fill:#efd6bb" />
				</g>
			</g>
			<g
   id="g586">
				<g
   id="g580">
					
						<ellipse
   transform="matrix(0.9042,-0.4271,0.4271,0.9042,-447.6255,488.839)"
   class="st13"
   cx="866"
   cy="1242.4"
   rx="9"
   ry="12.7"
   id="ellipse578"
   style="fill:#f9ebd9" />
				</g>
				<g
   id="g584">
					
						<ellipse
   transform="matrix(0.9042,-0.4271,0.4271,0.9042,-447.6255,488.839)"
   class="st14"
   cx="866"
   cy="1242.4"
   rx="4.6999998"
   ry="6.5999999"
   id="ellipse582"
   style="fill:#efd6bb" />
				</g>
			</g>
			<g
   id="g596">
				<g
   id="g590">
					
						<ellipse
   transform="matrix(0.9734,-0.2292,0.2292,0.9734,-264.9207,243.2135)"
   class="st13"
   cx="914.5"
   cy="1262"
   rx="8.3999996"
   ry="5.3000002"
   id="ellipse588"
   style="fill:#f9ebd9" />
				</g>
				<g
   id="g594">
					
						<ellipse
   transform="matrix(0.9734,-0.2292,0.2292,0.9734,-264.9207,243.2135)"
   class="st14"
   cx="914.5"
   cy="1262"
   rx="4.4000001"
   ry="2.8"
   id="ellipse592"
   style="fill:#efd6bb" />
				</g>
			</g>
			<g
   id="g606">
				<g
   id="g600">
					
						<ellipse
   transform="matrix(0.9139,-0.406,0.406,0.9139,-416.3502,490.0987)"
   class="st13"
   cx="947.09998"
   cy="1226.5"
   rx="5.3000002"
   ry="8.3999996"
   id="ellipse598"
   style="fill:#f9ebd9" />
				</g>
				<g
   id="g604">
					
						<ellipse
   transform="matrix(0.9139,-0.406,0.406,0.9139,-416.3502,490.0987)"
   class="st14"
   cx="947.09998"
   cy="1226.5"
   rx="2.8"
   ry="4.4000001"
   id="ellipse602"
   style="fill:#efd6bb" />
				</g>
			</g>
			<g
   id="g616">
				<g
   id="g610">
					
						<ellipse
   transform="matrix(0.5082,-0.8612,0.8612,0.5082,-620.5404,1054.2996)"
   class="st13"
   cx="612.90002"
   cy="1070.5"
   rx="8.1000004"
   ry="5.9000001"
   id="ellipse608"
   style="fill:#f9ebd9" />
				</g>
				<g
   id="g614">
					
						<ellipse
   transform="matrix(0.5082,-0.8612,0.8612,0.5082,-620.5404,1054.2996)"
   class="st14"
   cx="612.90002"
   cy="1070.5"
   rx="4.1999998"
   ry="3.0999999"
   id="ellipse612"
   style="fill:#efd6bb" />
				</g>
			</g>
			<g
   id="g626">
				<g
   id="g620">
					
						<ellipse
   transform="matrix(0.9578,-0.2873,0.2873,0.9578,-293.2706,219.5524)"
   class="st13"
   cx="601.29999"
   cy="1108.9"
   rx="5.9000001"
   ry="8.1000004"
   id="ellipse618"
   style="fill:#f9ebd9" />
				</g>
				<g
   id="g624">
					
						<ellipse
   transform="matrix(0.9578,-0.2873,0.2873,0.9578,-293.2706,219.5524)"
   class="st14"
   cx="601.29999"
   cy="1108.9"
   rx="3.0999999"
   ry="4.1999998"
   id="ellipse622"
   style="fill:#efd6bb" />
				</g>
			</g>
			<g
   id="g636">
				<g
   id="g630">
					
						<ellipse
   transform="matrix(0.911,-0.4124,0.4124,0.911,-332.7343,386.0733)"
   class="st13"
   cx="728.20001"
   cy="964"
   rx="6.8000002"
   ry="9.6999998"
   id="ellipse628"
   style="fill:#f9ebd9" />
				</g>
				<g
   id="g634">
					
						<ellipse
   transform="matrix(0.911,-0.4124,0.4124,0.911,-332.7343,386.0733)"
   class="st14"
   cx="728.20001"
   cy="964"
   rx="3.5"
   ry="5"
   id="ellipse632"
   style="fill:#efd6bb" />
				</g>
			</g>
			<g
   id="g646">
				<g
   id="g640">
					
						<ellipse
   transform="matrix(0.911,-0.4124,0.4124,0.911,-323.801,377.8137)"
   class="st13"
   cx="713.59998"
   cy="939.20001"
   rx="6.4000001"
   ry="9.1000004"
   id="ellipse638"
   style="fill:#f9ebd9" />
				</g>
				<g
   id="g644">
					
						<ellipse
   transform="matrix(0.911,-0.4124,0.4124,0.911,-323.801,377.8137)"
   class="st14"
   cx="713.59998"
   cy="939.20001"
   rx="3.3"
   ry="4.6999998"
   id="ellipse642"
   style="fill:#efd6bb" />
				</g>
			</g>
			<g
   id="g656">
				<g
   id="g650">
					
						<ellipse
   transform="matrix(0.8137,-0.5813,0.5813,0.8137,-397.9471,574.1265)"
   class="st13"
   cx="696.59998"
   cy="907.79999"
   rx="6.4000001"
   ry="9.1000004"
   id="ellipse648"
   style="fill:#f9ebd9" />
				</g>
				<g
   id="g654">
					
						<ellipse
   transform="matrix(0.8137,-0.5813,0.5813,0.8137,-397.9471,574.1265)"
   class="st14"
   cx="696.59998"
   cy="907.79999"
   rx="3.3"
   ry="4.6999998"
   id="ellipse652"
   style="fill:#efd6bb" />
				</g>
			</g>
			<g
   id="g666">
				<g
   id="g660">
					
						<ellipse
   transform="matrix(0.6632,-0.7484,0.7484,0.6632,-431.5456,803.7548)"
   class="st13"
   cx="677.29999"
   cy="881.40002"
   rx="6"
   ry="8.6000004"
   id="ellipse658"
   style="fill:#f9ebd9" />
				</g>
				<g
   id="g664">
					
						<ellipse
   transform="matrix(0.6632,-0.7484,0.7484,0.6632,-431.5456,803.7548)"
   class="st14"
   cx="677.29999"
   cy="881.40002"
   rx="3.0999999"
   ry="4.5"
   id="ellipse662"
   style="fill:#efd6bb" />
				</g>
			</g>
			<g
   id="g676">
				<g
   id="g670">
					
						<ellipse
   transform="matrix(0.9927,-0.1203,0.1203,0.9927,-100.1077,84.4378)"
   class="st13"
   cx="649.20001"
   cy="871.29999"
   rx="6.5"
   ry="5.0999999"
   id="ellipse668"
   style="fill:#f9ebd9" />
				</g>
				<g
   id="g674">
					
						<ellipse
   transform="matrix(0.9927,-0.1203,0.1203,0.9927,-100.1077,84.4378)"
   class="st14"
   cx="649.20001"
   cy="871.29999"
   rx="3.4000001"
   ry="2.7"
   id="ellipse672"
   style="fill:#efd6bb" />
				</g>
			</g>
			<g
   id="g686">
				<g
   id="g680">
					
						<ellipse
   transform="matrix(0.5758,-0.8176,0.8176,0.5758,-462.989,887.7557)"
   class="st13"
   cx="624.09998"
   cy="890.09998"
   rx="4.9000001"
   ry="3.9000001"
   id="ellipse678"
   style="fill:#f9ebd9" />
				</g>
				<g
   id="g684">
					
						<ellipse
   transform="matrix(0.5758,-0.8176,0.8176,0.5758,-462.989,887.7557)"
   class="st14"
   cx="624.09998"
   cy="890.09998"
   rx="2.5999999"
   ry="2"
   id="ellipse682"
   style="fill:#efd6bb" />
				</g>
			</g>
			<g
   id="g696">
				<g
   id="g690">
					
						<ellipse
   transform="matrix(0.9102,-0.4141,0.4141,0.9102,-325.6592,341.5742)"
   class="st13"
   cx="624.90002"
   cy="921.79999"
   rx="3"
   ry="3.8"
   id="ellipse688"
   style="fill:#f9ebd9" />
				</g>
				<g
   id="g694">
					
						<ellipse
   transform="matrix(0.9102,-0.4141,0.4141,0.9102,-325.6592,341.5742)"
   class="st14"
   cx="624.90002"
   cy="921.79999"
   rx="1.5"
   ry="2"
   id="ellipse692"
   style="fill:#efd6bb" />
				</g>
			</g>
			<g
   id="g706">
				<g
   id="g700">
					
						<ellipse
   transform="matrix(0.9004,-0.435,0.435,0.9004,-334.006,453.0503)"
   class="st13"
   cx="822.70001"
   cy="956.20001"
   rx="5.4000001"
   ry="8.3999996"
   id="ellipse698"
   style="fill:#f9ebd9" />
				</g>
				<g
   id="g704">
					
						<ellipse
   transform="matrix(0.9004,-0.435,0.435,0.9004,-334.006,453.0503)"
   class="st14"
   cx="822.70001"
   cy="956.20001"
   rx="2.8"
   ry="4.4000001"
   id="ellipse702"
   style="fill:#efd6bb" />
				</g>
			</g>
		</g>
		<linearGradient
   id="SVGID_6_"
   gradientUnits="userSpaceOnUse"
   x1="828.83429"
   y1="653.94702"
   x2="828.83429"
   y2="229.0251">
			<stop
   offset="0"
   style="stop-color:#62CFDD"
   id="stop709" />
			<stop
   offset="1"
   style="stop-color:#A6E6D7"
   id="stop711" />
		</linearGradient>
		
		<linearGradient
   id="SVGID_7_"
   gradientUnits="userSpaceOnUse"
   x1="880.33447"
   y1="653.94702"
   x2="880.33447"
   y2="229.0251">
			<stop
   offset="0"
   style="stop-color:#62CFDD"
   id="stop716" />
			<stop
   offset="1"
   style="stop-color:#A6E6D7"
   id="stop718" />
		</linearGradient>
		
		<linearGradient
   id="SVGID_8_"
   gradientUnits="userSpaceOnUse"
   x1="815.13251"
   y1="653.94702"
   x2="815.13251"
   y2="229.0251">
			<stop
   offset="0"
   style="stop-color:#62CFDD"
   id="stop723" />
			<stop
   offset="1"
   style="stop-color:#A6E6D7"
   id="stop725" />
		</linearGradient>
		
		<linearGradient
   id="SVGID_9_"
   gradientUnits="userSpaceOnUse"
   x1="854.87988"
   y1="653.94702"
   x2="854.87988"
   y2="229.0251">
			<stop
   offset="0"
   style="stop-color:#62CFDD"
   id="stop730" />
			<stop
   offset="1"
   style="stop-color:#A6E6D7"
   id="stop732" />
		</linearGradient>
		
		<linearGradient
   id="SVGID_10_"
   gradientUnits="userSpaceOnUse"
   x1="896.28583"
   y1="653.94702"
   x2="896.28583"
   y2="229.0251">
			<stop
   offset="0"
   style="stop-color:#62CFDD"
   id="stop737" />
			<stop
   offset="1"
   style="stop-color:#A6E6D7"
   id="stop739" />
		</linearGradient>
		
		<linearGradient
   id="SVGID_11_"
   gradientUnits="userSpaceOnUse"
   x1="810.45862"
   y1="653.94702"
   x2="810.45862"
   y2="229.0251">
			<stop
   offset="0"
   style="stop-color:#62CFDD"
   id="stop744" />
			<stop
   offset="1"
   style="stop-color:#A6E6D7"
   id="stop746" />
		</linearGradient>
		
		<linearGradient
   id="SVGID_12_"
   gradientUnits="userSpaceOnUse"
   x1="819.5434"
   y1="653.94702"
   x2="819.5434"
   y2="229.0251">
			<stop
   offset="0"
   style="stop-color:#62CFDD"
   id="stop751" />
			<stop
   offset="1"
   style="stop-color:#A6E6D7"
   id="stop753" />
		</linearGradient>
		
		<linearGradient
   id="SVGID_13_"
   gradientUnits="userSpaceOnUse"
   x1="896.76062"
   y1="653.94702"
   x2="896.76062"
   y2="229.0251">
			<stop
   offset="0"
   style="stop-color:#62CFDD"
   id="stop758" />
			<stop
   offset="1"
   style="stop-color:#A6E6D7"
   id="stop760" />
		</linearGradient>
		
		<linearGradient
   id="SVGID_14_"
   gradientUnits="userSpaceOnUse"
   x1="885.84363"
   y1="653.94702"
   x2="885.84363"
   y2="229.0251">
			<stop
   offset="0"
   style="stop-color:#62CFDD"
   id="stop765" />
			<stop
   offset="1"
   style="stop-color:#A6E6D7"
   id="stop767" />
		</linearGradient>
		
		<linearGradient
   id="SVGID_15_"
   gradientUnits="userSpaceOnUse"
   x1="819.13013"
   y1="653.94702"
   x2="819.13013"
   y2="229.0251">
			<stop
   offset="0"
   style="stop-color:#62CFDD"
   id="stop772" />
			<stop
   offset="1"
   style="stop-color:#A6E6D7"
   id="stop774" />
		</linearGradient>
		
	</g>
</g>
</svg>